<svg aria-hidden="true"
     style="position: absolute; width: 0; height: 0; overflow: hidden;"
     version="1.1" xmlns="http://www.w3.org/2000/svg"
     xmlns:xlink="http://www.w3.org/1999/xlink">
  <defs>
    <symbol id="icon-dot" viewBox="0 0 8 32">
      <path fill="#def7ec" style="fill: var(--color1, #def7ec)"
            d="M4.308 6.31c1.844 0 3.339-1.346 3.339-3.005s-1.495-3.005-3.339-3.005c-1.844 0-3.339 1.346-3.339 3.005s1.495 3.005 3.339 3.005z"></path>
      <path fill="#def7ec" style="fill: var(--color1, #def7ec)"
            d="M4.308 18.332c1.844 0 3.339-1.346 3.339-3.005s-1.495-3.005-3.339-3.005c-1.844 0-3.339 1.346-3.339 3.005s1.495 3.005 3.339 3.005z"></path>
      <path fill="#def7ec" style="fill: var(--color1, #def7ec)"
            d="M4.308 30.353c1.844 0 3.339-1.346 3.339-3.006s-1.495-3.005-3.339-3.005-3.339 1.346-3.339 3.005c0 1.66 1.495 3.006 3.339 3.006z"></path>
    </symbol>
    <symbol id="icon-location" viewBox="0 0 26 32">
      <path fill="#126a57" style="fill: var(--color2, #126a57)"
            d="M13.177 19.137c-1.241 0-2.454-0.368-3.486-1.058s-1.836-1.669-2.311-2.816c-0.475-1.146-0.599-2.408-0.357-3.625s0.84-2.335 1.717-3.213c0.877-0.877 1.996-1.475 3.213-1.717s2.479-0.118 3.625 0.357c1.147 0.475 2.126 1.279 2.816 2.311s1.057 2.245 1.057 3.486c0 1.664-0.661 3.26-1.838 4.437s-2.773 1.838-4.437 1.838zM13.177 9.725c-0.62 0-1.227 0.184-1.743 0.529s-0.918 0.835-1.155 1.408c-0.237 0.573-0.3 1.204-0.179 1.813s0.42 1.168 0.859 1.606c0.439 0.439 0.998 0.738 1.606 0.859s1.239 0.059 1.813-0.179c0.573-0.237 1.063-0.64 1.408-1.155s0.529-1.122 0.529-1.743c0-0.832-0.331-1.63-0.919-2.218s-1.386-0.919-2.218-0.919z"></path>
      <path fill="#126a57" style="fill: var(--color2, #126a57)"
            d="M13.177 31.686c-0.232 0-0.46-0.051-0.67-0.15s-0.394-0.243-0.541-0.422l-8.227-9.998c-0.157-0.176-0.336-0.395-0.511-0.627l-0.188-0.229c-0.073-0.088-0.136-0.185-0.188-0.287-1.292-1.873-2.050-4.063-2.194-6.334s0.334-4.539 1.38-6.56c1.046-2.021 2.622-3.719 4.56-4.913s4.163-1.839 6.439-1.865c2.276-0.026 4.516 0.567 6.48 1.715s3.58 2.81 4.673 4.806 1.622 4.252 1.532 6.526c-0.091 2.274-0.798 4.481-2.046 6.383-0.051 0.108-0.115 0.209-0.191 0.301l-0.199 0.243c-0.28 0.384-0.583 0.75-0.907 1.098l-7.988 9.733c-0.146 0.181-0.331 0.326-0.541 0.427s-0.439 0.153-0.672 0.154zM5.609 18.45l0.074 0.089c0.157 0.212 0.303 0.38 0.447 0.543l7.048 8.565 6.836-8.326c0.281-0.302 0.543-0.622 0.784-0.957l0.118-0.143 0.041-0.064c0.97-1.423 1.531-3.084 1.623-4.804s-0.291-3.431-1.105-4.949c-0.814-1.517-2.029-2.782-3.512-3.657s-3.178-1.326-4.9-1.304c-1.722 0.022-3.405 0.515-4.866 1.427s-2.643 2.207-3.419 3.745c-0.776 1.537-1.114 3.258-0.98 4.975s0.738 3.364 1.744 4.761c0.025 0.033 0.048 0.066 0.067 0.099z"></path>
    </symbol>
    <symbol id="icon-date" viewBox="0 0 34 32">
      <path fill="#126a57" style="fill: var(--color2, #126a57)"
            d="M29.867 3.2h-3.2v-1.6c0-0.424-0.169-0.831-0.469-1.131s-0.707-0.469-1.131-0.469-0.831 0.169-1.131 0.469c-0.3 0.3-0.469 0.707-0.469 1.131v1.6h-4.8v-1.6c0-0.424-0.169-0.831-0.469-1.131s-0.707-0.469-1.131-0.469c-0.424 0-0.831 0.169-1.131 0.469s-0.469 0.707-0.469 1.131v1.6h-4.8v-1.6c0-0.424-0.169-0.831-0.469-1.131s-0.707-0.469-1.131-0.469c-0.424 0-0.831 0.169-1.131 0.469s-0.469 0.707-0.469 1.131v1.6h-3.2c-0.849 0-1.663 0.337-2.263 0.937s-0.937 1.414-0.937 2.263v22.4c0 0.849 0.337 1.663 0.937 2.263s1.414 0.937 2.263 0.937h25.6c0.849 0 1.663-0.337 2.263-0.937s0.937-1.414 0.937-2.263v-22.4c0-0.849-0.337-1.663-0.937-2.263s-1.414-0.937-2.263-0.937zM7.467 6.4c0 0.424 0.169 0.831 0.469 1.131s0.707 0.469 1.131 0.469c0.424 0 0.831-0.169 1.131-0.469s0.469-0.707 0.469-1.131h4.8c0 0.424 0.169 0.831 0.469 1.131s0.707 0.469 1.131 0.469c0.424 0 0.831-0.169 1.131-0.469s0.469-0.707 0.469-1.131h4.8c0 0.424 0.169 0.831 0.469 1.131s0.707 0.469 1.131 0.469 0.831-0.169 1.131-0.469c0.3-0.3 0.469-0.707 0.469-1.131h3.2v3.2h-25.6v-3.2h3.2zM4.267 28.8v-16h25.6v16h-25.6z"></path>
      <path fill="#126a57" style="fill: var(--color2, #126a57)"
            d="M9.867 16h-1.6c-0.442 0-0.8 0.358-0.8 0.8v1.6c0 0.442 0.358 0.8 0.8 0.8h1.6c0.442 0 0.8-0.358 0.8-0.8v-1.6c0-0.442-0.358-0.8-0.8-0.8z"></path>
      <path fill="#126a57" style="fill: var(--color2, #126a57)"
            d="M9.867 22.4h-1.6c-0.442 0-0.8 0.358-0.8 0.8v1.6c0 0.442 0.358 0.8 0.8 0.8h1.6c0.442 0 0.8-0.358 0.8-0.8v-1.6c0-0.442-0.358-0.8-0.8-0.8z"></path>
      <path fill="#126a57" style="fill: var(--color2, #126a57)"
            d="M17.867 16h-1.6c-0.442 0-0.8 0.358-0.8 0.8v1.6c0 0.442 0.358 0.8 0.8 0.8h1.6c0.442 0 0.8-0.358 0.8-0.8v-1.6c0-0.442-0.358-0.8-0.8-0.8z"></path>
      <path fill="#126a57" style="fill: var(--color2, #126a57)"
            d="M17.867 22.4h-1.6c-0.442 0-0.8 0.358-0.8 0.8v1.6c0 0.442 0.358 0.8 0.8 0.8h1.6c0.442 0 0.8-0.358 0.8-0.8v-1.6c0-0.442-0.358-0.8-0.8-0.8z"></path>
      <path fill="#126a57" style="fill: var(--color2, #126a57)"
            d="M25.867 16h-1.6c-0.442 0-0.8 0.358-0.8 0.8v1.6c0 0.442 0.358 0.8 0.8 0.8h1.6c0.442 0 0.8-0.358 0.8-0.8v-1.6c0-0.442-0.358-0.8-0.8-0.8z"></path>
      <path fill="#126a57" style="fill: var(--color2, #126a57)"
            d="M25.867 22.4h-1.6c-0.442 0-0.8 0.358-0.8 0.8v1.6c0 0.442 0.358 0.8 0.8 0.8h1.6c0.442 0 0.8-0.358 0.8-0.8v-1.6c0-0.442-0.358-0.8-0.8-0.8z"></path>
    </symbol>
    <symbol id="icon-insta" viewBox="0 0 32 32">
      <path fill="#eefbf6" style="fill: var(--color3, #eefbf6)"
            d="M24 0h-16c-4.418 0-8 3.582-8 8v16c0 4.418 3.582 8 8 8h16c4.418 0 8-3.582 8-8v-16c0-4.418-3.582-8-8-8zM16.773 11.183c-0.999-0.148-2.019 0.023-2.915 0.488s-1.623 1.201-2.077 2.103c-0.454 0.902-0.612 1.924-0.452 2.921s0.631 1.918 1.345 2.632c0.714 0.714 1.635 1.184 2.632 1.345s2.019 0.002 2.921-0.452c0.902-0.454 1.638-1.181 2.103-2.077s0.636-1.916 0.488-2.915c-0.151-1.019-0.626-1.962-1.354-2.69s-1.671-1.203-2.69-1.354zM12.384 8.83c1.494-0.775 3.194-1.059 4.858-0.812 1.698 0.252 3.27 1.043 4.483 2.257s2.005 2.786 2.257 4.483c0.247 1.664-0.037 3.364-0.812 4.858s-2.001 2.705-3.504 3.461c-1.503 0.756-3.206 1.020-4.868 0.752s-3.196-1.052-4.386-2.241c-1.19-1.19-1.974-2.725-2.242-4.386s-0.004-3.365 0.753-4.868 1.968-2.729 3.461-3.504zM24.8 5.6c-0.884 0-1.6 0.716-1.6 1.6s0.716 1.6 1.6 1.6h0.016c0.884 0 1.6-0.716 1.6-1.6s-0.716-1.6-1.6-1.6h-0.016z"></path>
    </symbol>
    <symbol id="icon-Facebook" viewBox="0 0 19 32">
      <path fill="#eefbf6" style="fill: var(--color3, #eefbf6)"
            d="M11.266 18.604v13.396h-6.154v-13.396h-5.112v-5.432h5.112v-1.976c0-7.337 3.065-11.195 9.55-11.195 1.988 0 2.485 0.32 3.574 0.58v5.373c-1.219-0.213-1.562-0.331-2.828-0.331-1.503 0-2.308 0.426-3.041 1.266s-1.101 2.296-1.101 4.379v1.917h6.97l-1.87 5.432h-5.101v-0.012z"></path>
    </symbol>
    <symbol id="icon-TikTok" viewBox="0 0 29 32">
      <path fill="#eefbf6" style="fill: var(--color3, #eefbf6)"
            d="M20.384 1.217l-0.772-1.217h-4.672v10.964l-0.016 10.709c0.008 0.080 0.016 0.167 0.016 0.247 0 2.681-2.181 4.869-4.871 4.869s-4.871-2.18-4.871-4.869c0-2.681 2.181-4.869 4.871-4.869 0.557 0 1.098 0.103 1.6 0.278v-5.347c-0.517-0.088-1.051-0.135-1.6-0.135-5.548 0.008-10.068 4.527-10.068 10.080s4.521 10.073 10.076 10.073c5.556 0 10.076-4.519 10.076-10.073v-12.738c2.014 2.013 4.616 3.978 7.498 4.607v-5.466c-3.128-1.384-6.24-5.474-7.267-7.113z"></path>
    </symbol>
    <symbol id="icon-pinterest" viewBox="0 0 26 32">
      <path fill="#eefbf6" style="fill: var(--color3, #eefbf6)"
            d="M10.438 21.87c1.013 0.033 1.928 1.372 4.608 1.372 5.032 0.033 8.496-3.823 9.575-8.888 3.758-17.548-21.829-18.953-24.443-4.51-0.621 3.398 0.392 7.32 3.039 8.594 2.026 0.98 2.157-1.83 1.536-3.039-2.745-5.359 0.556-10.195 4.869-11.568 4.052-1.307 6.928-0.229 9.117 2.026 2.81 2.908 1.536 10.816-1.797 13.332-1.176 0.882-3.333 1.078-4.444 0.033-2.287-2.124 1.242-6.634 0.719-9.934-0.523-3.268-5.686-2.778-5.947 2.026-0.131 2.451 0.588 3.17 0.033 5.621-0.882 3.921-3.562 11.927-1.667 15.064 2.778-1.307 4.15-9.15 4.804-10.13z"></path>
    </symbol>
    <symbol id="icon-email" viewBox="0 0 37 32">
      <path stroke="currentColor" fill="currentColor"
            d="M32.885 1.778h-28.444c-0.943 0-1.847 0.4-2.514 1.111s-1.041 1.676-1.041 2.682v20.859c0 1.006 0.375 1.97 1.041 2.682s1.571 1.111 2.514 1.111h28.444c0.943 0 1.847-0.399 2.514-1.111s1.042-1.676 1.042-2.682v-20.859c0-1.006-0.375-1.97-1.042-2.682s-1.571-1.111-2.514-1.111zM31.913 5.571l-13.173 11.916-13.31-11.916h26.484zM4.441 26.43v-16.792l12.089 10.809c0.608 0.488 1.349 0.751 2.11 0.749 0.808-0.003 1.593-0.288 2.235-0.812l12.011-10.746v16.792h-28.444z"></path>
    </symbol>
    <symbol id="icon-arrow-down" viewBox="0 0 53 32">
      <path fill="#115446" style="fill: var(--color4, #115446)"
            d="M26.721 30.222c-1.32-0-2.586-0.499-3.519-1.386l-19.911-18.924c-0.475-0.436-0.855-0.959-1.116-1.536s-0.398-1.198-0.404-1.826c-0.006-0.628 0.12-1.251 0.37-1.833s0.62-1.11 1.087-1.554c0.467-0.444 1.023-0.796 1.635-1.033s1.267-0.358 1.928-0.352c0.661 0.005 1.314 0.136 1.921 0.384s1.157 0.608 1.616 1.060l16.392 15.579 16.392-15.579c0.939-0.862 2.196-1.339 3.501-1.328s2.554 0.508 3.477 1.385c0.923 0.877 1.446 2.064 1.458 3.304s-0.49 2.436-1.397 3.328l-19.911 18.924c-0.933 0.887-2.199 1.386-3.519 1.386z"></path>
    </symbol>
    <symbol id="icon-question" viewBox="0 0 30 32">
      <path fill="#f9fbfb" style="fill: var(--color5, #f9fbfb)"
            d="M14.769 1.231c-2.921 0-5.777 0.866-8.205 2.489s-4.322 3.929-5.44 6.628c-1.118 2.699-1.41 5.668-0.84 8.533s1.976 5.497 4.042 7.562c2.066 2.066 4.697 3.472 7.562 4.042s5.835 0.277 8.533-0.84c2.699-1.118 5.005-3.011 6.628-5.44s2.489-5.284 2.489-8.205c-0.004-3.916-1.562-7.67-4.331-10.439s-6.523-4.326-10.439-4.331v0zM14.769 24.862c-0.292 0-0.578-0.087-0.821-0.249s-0.432-0.393-0.544-0.663c-0.112-0.27-0.141-0.567-0.084-0.853s0.198-0.55 0.404-0.756c0.207-0.207 0.47-0.347 0.756-0.404s0.583-0.028 0.853 0.084c0.27 0.112 0.501 0.301 0.663 0.544s0.249 0.528 0.249 0.821c0 0.392-0.156 0.767-0.433 1.044s-0.653 0.433-1.044 0.433zM16.246 18.165v0.789c0 0.392-0.156 0.767-0.433 1.044s-0.653 0.433-1.044 0.433c-0.392 0-0.767-0.156-1.044-0.433s-0.433-0.653-0.433-1.044v-2.094c0-0.199 0.040-0.396 0.118-0.579s0.192-0.348 0.335-0.486c0.142-0.139 0.312-0.247 0.497-0.317s0.384-0.102 0.582-0.093c0.286 0.010 0.57-0.037 0.837-0.14s0.51-0.258 0.715-0.456c0.205-0.199 0.368-0.437 0.479-0.7s0.167-0.546 0.166-0.832c0.023-0.588-0.189-1.16-0.588-1.592s-0.954-0.687-1.541-0.709c-0.588-0.023-1.16 0.189-1.592 0.588s-0.687 0.954-0.709 1.541c-0.005 0.195-0.048 0.386-0.128 0.564s-0.195 0.337-0.338 0.469c-0.143 0.132-0.311 0.235-0.494 0.301s-0.377 0.095-0.572 0.085c-0.391-0.015-0.76-0.185-1.026-0.472s-0.407-0.668-0.392-1.059c0.042-0.95 0.345-1.87 0.876-2.658s1.269-1.416 2.133-1.812c0.864-0.396 1.821-0.547 2.765-0.435s1.839 0.482 2.586 1.070c0.747 0.588 1.318 1.37 1.649 2.261s0.411 1.856 0.229 2.789c-0.182 0.933-0.617 1.798-1.258 2.5s-1.464 1.213-2.377 1.478z"></path>
    </symbol>
    <symbol id="icon-star" viewBox="0 0 32 32">
      <path fill="none" stroke="#0f453b" style="stroke: var(--color6, #0f453b)"
            stroke-linejoin="round" stroke-linecap="round" stroke-miterlimit="4"
            stroke-width="3.2"
            d="M16 1.6l2.775 7.214c0.451 1.173 0.677 1.76 1.028 2.253 0.311 0.437 0.693 0.819 1.13 1.13 0.493 0.351 1.080 0.576 2.253 1.028l7.214 2.775-7.214 2.775c-1.173 0.451-1.76 0.677-2.253 1.028-0.437 0.311-0.819 0.693-1.13 1.13-0.351 0.493-0.576 1.080-1.028 2.253l-2.775 7.214-2.775-7.214c-0.451-1.173-0.677-1.76-1.028-2.253-0.311-0.437-0.693-0.819-1.13-1.13-0.493-0.351-1.080-0.576-2.253-1.028l-7.214-2.775 7.214-2.775c1.173-0.451 1.76-0.677 2.253-1.028 0.437-0.311 0.819-0.693 1.13-1.13 0.351-0.493 0.576-1.080 1.028-2.253l2.775-7.214z"></path>
    </symbol>
    <symbol id="icon-arrow-right-1" viewBox="0 0 16 32">
      <path stroke="currentColor" fill="currentColor"
            d="M14.768 13.19l-11.402-10.652c-0.806-0.752-2.074-0.712-2.826 0.096-0.754 0.808-0.712 2.074 0.094 2.828l11.282 10.538-11.282 10.538c-0.806 0.754-0.85 2.020-0.096 2.828 0.394 0.422 0.926 0.634 1.462 0.634 0.49 0 0.98-0.178 1.366-0.538l11.402-10.652c0.794-0.744 1.232-1.74 1.232-2.81s-0.438-2.066-1.232-2.81z"></path>
    </symbol>
    <symbol id="icon-arrow-left-1" viewBox="0 0 16 32">
      <path stroke="currentColor" fill="currentColor"
            d="M4.084 16l11.282-10.538c0.806-0.754 0.85-2.020 0.096-2.828-0.752-0.808-2.022-0.85-2.826-0.096l-11.402 10.652c-0.796 0.744-1.234 1.74-1.234 2.81s0.438 2.066 1.232 2.81l11.402 10.652c0.386 0.36 0.876 0.538 1.366 0.538 0.536 0 1.068-0.212 1.46-0.634 0.754-0.808 0.71-2.072-0.096-2.828l-11.28-10.538z"></path>
    </symbol>
    <symbol id="icon-search" viewBox="0 0 34 32">
      <path fill="#eefbf6" style="fill: var(--color3, #eefbf6)"
            d="M13.867 25.6c-2.532 0-5.006-0.751-7.111-2.157s-3.746-3.406-4.714-5.744c-0.969-2.339-1.222-4.913-0.728-7.396s1.713-4.764 3.503-6.554c1.79-1.79 4.071-3.009 6.554-3.503s5.057-0.24 7.396 0.728c2.339 0.969 4.338 2.609 5.744 4.714s2.157 4.58 2.157 7.111c-0.004 3.394-1.354 6.647-3.753 9.047s-5.653 3.749-9.047 3.753zM13.867 3.2c-1.899 0-3.755 0.563-5.334 1.618s-2.809 2.554-3.536 4.308c-0.727 1.754-0.917 3.684-0.546 5.547s1.285 3.573 2.627 4.915c1.343 1.343 3.053 2.257 4.915 2.627s3.793 0.18 5.547-0.546c1.754-0.727 3.254-1.957 4.308-3.536s1.618-3.435 1.618-5.333c-0.003-2.545-1.015-4.986-2.815-6.785s-4.24-2.812-6.785-2.815z"></path>
      <path fill="#eefbf6" style="fill: var(--color3, #eefbf6)"
            d="M31.467 32c-0.424 0-0.831-0.169-1.131-0.469l-6.4-6.4c-0.292-0.302-0.453-0.706-0.449-1.126s0.172-0.821 0.468-1.117c0.297-0.297 0.698-0.465 1.117-0.469s0.824 0.158 1.126 0.449l6.4 6.4c0.224 0.224 0.376 0.509 0.438 0.819s0.030 0.632-0.091 0.924c-0.121 0.292-0.326 0.542-0.589 0.718s-0.572 0.27-0.889 0.27z"></path>
    </symbol>
    <symbol id="icon-Logo" viewBox="0 0 200 32" fill="none">
      <path stroke="currentColor" fill="currentColor"
            d="M148.832 14.257v16.197h-4.598v-27.857h4.598l11.196 16.834c0.912 1.353 1.474 3.542 1.965 5.173l0.772-0.278c-0.491-1.632-1.193-3.741-1.193-5.492v-16.237h4.598v27.857h-4.598l-11.196-16.794c-0.948-1.393-1.509-3.542-2.001-5.213l-0.737 0.318c0.491 1.632 1.193 3.741 1.193 5.492z"></path>
      <path stroke="currentColor" fill="currentColor"
            d="M135.916 18.316c1.404 0.955 2.036 2.666 2.597 5.173 0.316 1.592 1.86 6.964 1.86 6.964h-4.738c-0.772-3.502-1.369-6.089-1.474-6.646-1.123-4.497-3.58-4.019-4.878-4.099-0.246 0-0.527 0-0.842 0-0.842 0-2.632 0-3.053 0v10.745h-4.457v-27.857h8.774c5.51 0 10.073 1.273 10.073 7.8 0 3.582-1.649 5.174-3.861 6.248-1.158 0.597-2.843 0.358-4.106 0.358v0.915c1.264 0 3.054-0.398 4.106 0.398zM125.387 6.059v9.352h3.966c3.053 0 5.826-1.393 5.826-4.935 0-3.502-2.562-4.417-5.826-4.417h-3.966z"></path>
      <path stroke="currentColor" fill="currentColor"
            d="M94.742 30.414l9.055-27.897h5.264l9.476 27.897h-4.808l-3.299-9.71h-7.827l-3.018 9.71h-4.843zM109.869 16.804l-2.878-7.402c-0.316-0.836-0.14-1.99-0.14-2.865h-0.807c0 0.875 0.175 2.030-0.14 2.865l-2.878 7.402h6.844z"></path>
      <path stroke="currentColor" fill="currentColor"
            d="M89.386 30.454v-2.229c0-1.592 0.632-3.582 0.983-5.134l-0.737-0.199c-0.386 1.512-0.456 3.781-1.404 4.974-1.228 1.512-3.51 3.224-7.125 3.224-7.23 0-12.845-6.288-12.845-14.565s5.51-14.526 13.056-14.526c5.44 0 9.827 2.865 11.477 7.88 0 0-4.598 1.194-4.563 1.154-1.088-2.547-3.755-4.099-7.195-4.099-4.843 0-8.178 3.98-8.178 9.591s3.58 9.631 8.774 9.631c5.58 0 7.23-4.099 7.23-6.288h-6.598v-4.497h11.547v15.083h-4.422z"></path>
      <path stroke="currentColor" fill="currentColor"
            d="M59.13 30.454h-4.598v-23.002h-6.563v-4.855h17.724v4.855h-6.563v23.002z"></path>
      <path stroke="currentColor" fill="currentColor"
            d="M44.35 2.597v18.187c0.035 6.646-4.738 10.267-10.845 10.267-6.142 0-10.845-3.621-10.88-10.267 0-8.277 0.035-18.187 0.035-18.187h4.598v16.714c0.035 3.621 2.667 6.845 6.247 6.845 3.615 0 6.282-3.224 6.247-6.845 0-5.691 0-16.714 0-16.714h4.598z"></path>
      <path stroke="currentColor" fill="currentColor"
            d="M12.481 30.454h-4.598v-23.002h-6.563v-4.855h17.724v4.855h-6.563v23.002z"></path>
      <path stroke="currentColor" fill="currentColor"
            d="M183.029 2c7.459 0 13.333 6.402 13.333 13.908s-5.874 13.946-13.333 13.946c-7.459 0-13.333-6.059-13.333-13.946s5.874-13.908 13.333-13.908zM185.179 7.098c-0.095 0.222-0.21 0.501-0.352 0.84-0.362 0.893-1.068 2.121-1.575 2.724-1.050 1.273-1.068 1.317-0.416 1.496 0.851 0.201 2.137 1.384 2.68 2.456 0.326 0.643 0.479 0.956 0.626 0.952 0.138-0.003 0.269-0.288 0.533-0.841 0.398-0.804 2.118-2.657 2.752-2.925 0.145-0.067 0.036-0.313-0.308-0.603-1.231-1.206-2.209-2.478-2.807-3.639-0.017-0.034-0.034-0.067-0.050-0.1-0.343-0.144-0.704-0.265-1.083-0.36z"></path>
    </symbol>
    <symbol id="icon-user" viewBox="0 0 35 32">
      <path stroke="currentColor" fill="currentColor"
        d="M17.6 19.2c1.266 0 2.503-0.375 3.556-1.079s1.873-1.703 2.357-2.872c0.484-1.169 0.611-2.456 0.364-3.698s-0.856-2.382-1.752-3.277c-0.895-0.895-2.035-1.505-3.277-1.752s-2.528-0.12-3.698 0.364c-1.169 0.484-2.169 1.305-2.872 2.357s-1.079 2.29-1.079 3.556c0 1.697 0.674 3.325 1.875 4.525s2.828 1.875 4.525 1.875zM17.6 9.6c0.633 0 1.252 0.188 1.778 0.539s0.936 0.851 1.179 1.436c0.242 0.585 0.306 1.228 0.182 1.849s-0.428 1.191-0.876 1.638c-0.448 0.448-1.018 0.752-1.638 0.876s-1.264 0.060-1.849-0.182c-0.585-0.242-1.085-0.652-1.436-1.179s-0.539-1.145-0.539-1.778c0-0.849 0.337-1.663 0.937-2.263s1.414-0.937 2.263-0.937z"></path>
      <path stroke="currentColor" fill="currentColor"
        d="M33.6 16c0.002-2.768-0.713-5.488-2.077-7.896s-3.329-4.422-5.703-5.843c-2.374-1.422-5.077-2.203-7.844-2.269s-5.503 0.589-7.942 1.897c-2.439 1.309-4.496 3.227-5.972 5.569s-2.318 5.026-2.446 7.79 0.463 5.515 1.716 7.983c1.253 2.468 3.124 4.568 5.432 6.096 0.013 0.010 0.021 0.021 0.034 0.030 0.061 0.040 0.128 0.067 0.19 0.107 0.516 0.329 1.050 0.629 1.6 0.898 0.146 0.070 0.29 0.144 0.438 0.21 0.623 0.287 1.264 0.533 1.92 0.734 0.078 0.026 0.16 0.040 0.242 0.062 0.59 0.168 1.188 0.301 1.794 0.398 0.176 0.030 0.35 0.059 0.526 0.082 0.693 0.096 1.392 0.147 2.091 0.152 0.696-0.005 1.391-0.056 2.080-0.152 0.176-0.022 0.35-0.051 0.526-0.082 0.605-0.098 1.204-0.231 1.794-0.398 0.080-0.022 0.16-0.037 0.242-0.062 0.656-0.202 1.297-0.447 1.92-0.734 0.149-0.066 0.293-0.139 0.438-0.21 0.55-0.269 1.084-0.569 1.6-0.898 0.062-0.040 0.13-0.067 0.19-0.107 0.013-0.010 0.021-0.021 0.034-0.030 2.203-1.456 4.011-3.436 5.263-5.761s1.909-4.924 1.913-7.565zM4.8 16c-0.004-2.124 0.52-4.215 1.526-6.086s2.461-3.462 4.235-4.63c1.774-1.168 3.81-1.876 5.926-2.061s4.244 0.16 6.194 1.003c1.949 0.843 3.658 2.158 4.973 3.826s2.193 3.637 2.557 5.729c0.364 2.092 0.201 4.242-0.473 6.256s-1.839 3.829-3.389 5.28c-0.647-1.349-1.66-2.488-2.925-3.287s-2.728-1.226-4.224-1.232h-3.2c-1.496 0.006-2.96 0.432-4.224 1.232s-2.278 1.938-2.925 3.287c-1.278-1.193-2.296-2.636-2.993-4.239s-1.057-3.332-1.058-5.080zM22.152 27.949c-2.937 1.091-6.167 1.091-9.104 0-0.056-0.022-0.115-0.040-0.171-0.062-0.475-0.185-0.938-0.399-1.387-0.64 0.32-0.944 0.926-1.764 1.735-2.346s1.779-0.897 2.775-0.901h3.2c0.996 0.003 1.966 0.318 2.775 0.899s1.415 1.401 1.736 2.344c-0.449 0.241-0.912 0.455-1.387 0.64-0.056 0.026-0.115 0.043-0.171 0.066z"></path>
    </symbol>
    <symbol id="icon-menu" viewBox="0 0 37 32">
      <path stroke="currentColor" fill="currentColor"
        d="M34.35 4.889h-31.373c-0.555 0-1.087-0.234-1.479-0.651s-0.613-0.982-0.613-1.571c0-0.589 0.22-1.155 0.613-1.571s0.924-0.651 1.479-0.651h31.373c0.555 0 1.087 0.234 1.479 0.651s0.613 0.982 0.613 1.571-0.221 1.155-0.613 1.571c-0.392 0.417-0.924 0.651-1.479 0.651z"></path>
      <path stroke="currentColor" fill="currentColor"
        d="M34.35 18.222h-31.373c-0.555 0-1.087-0.234-1.479-0.651s-0.613-0.982-0.613-1.571c0-0.589 0.22-1.155 0.613-1.571s0.924-0.651 1.479-0.651h31.373c0.555 0 1.087 0.234 1.479 0.651s0.613 0.982 0.613 1.571-0.221 1.155-0.613 1.571c-0.392 0.417-0.924 0.651-1.479 0.651z"></path>
      <path stroke="currentColor" fill="currentColor"
        d="M34.35 31.555h-31.373c-0.555 0-1.087-0.234-1.479-0.651s-0.613-0.982-0.613-1.571c0-0.59 0.22-1.155 0.613-1.571s0.924-0.651 1.479-0.651h31.373c0.555 0 1.087 0.234 1.479 0.651s0.613 0.982 0.613 1.571c0 0.589-0.221 1.154-0.613 1.571s-0.924 0.651-1.479 0.651z"></path>
    </symbol>
    <symbol id="icon-close" viewBox="0 0 32 32">
      <path stroke="currentColor" fill="currentColor"
        d="M19.173 16.027l11.762-11.762c0.212-0.205 0.382-0.45 0.498-0.721s0.178-0.563 0.18-0.858c0.002-0.295-0.054-0.588-0.165-0.861s-0.277-0.521-0.486-0.73c-0.209-0.209-0.457-0.374-0.73-0.485s-0.566-0.168-0.861-0.165c-0.295 0.003-0.587 0.064-0.858 0.18s-0.517 0.286-0.721 0.498l-11.762 11.762-11.762-11.762c-0.419-0.405-0.98-0.629-1.563-0.624s-1.14 0.239-1.552 0.651c-0.412 0.412-0.646 0.969-0.651 1.552s0.219 1.144 0.624 1.563l11.762 11.762-11.762 11.762c-0.212 0.205-0.382 0.45-0.498 0.721s-0.178 0.563-0.18 0.858c-0.003 0.295 0.054 0.588 0.165 0.861s0.277 0.521 0.485 0.73c0.209 0.209 0.457 0.374 0.73 0.485s0.566 0.168 0.861 0.165c0.295-0.002 0.587-0.064 0.858-0.18s0.516-0.286 0.721-0.498l11.762-11.762 11.762 11.762c0.419 0.405 0.98 0.629 1.563 0.624s1.14-0.239 1.552-0.651c0.412-0.412 0.646-0.969 0.651-1.552s-0.219-1.144-0.624-1.563l-11.762-11.762z"></path>
    </symbol>
    <symbol id="icon-Master2" viewBox="0 0 31 32">
      <path stroke="currentColor" fill="currentColor"
            d="M2.145 3.445c0.029-0.038 0.058-0.077 0.087-0.116 0.411-0.352 0.861-0.364 1.341-0.37 0.070-0.002 0.14-0.003 0.209-0.005 0.188-0.005 0.376-0.008 0.564-0.011 0.197-0.003 0.395-0.008 0.592-0.012 0.331-0.007 0.662-0.013 0.993-0.019 0.382-0.007 0.765-0.014 1.147-0.023 0.408-0.009 0.816-0.017 1.224-0.025 0.117-0.002 0.235-0.005 0.352-0.007 0.184-0.004 0.369-0.007 0.553-0.010 0.068-0.001 0.135-0.002 0.203-0.004 0.092-0.002 0.185-0.003 0.277-0.005 0.077-0.001 0.077-0.001 0.156-0.003 0.31 0.023 0.478 0.163 0.69 0.43 0.143 0.22 0.172 0.411 0.172 0.687-0.029 0.308-0.162 0.487-0.333 0.705-0.238 0.214-0.505 0.223-0.789 0.225-0.054 0.001-0.054 0.001-0.109 0.002-0.118 0.002-0.237 0.003-0.355 0.005-0.083 0.001-0.165 0.003-0.248 0.004-0.217 0.004-0.434 0.007-0.651 0.010-0.348 0.005-0.695 0.011-1.043 0.017-0.121 0.002-0.242 0.004-0.364 0.005-0.074 0.001-0.149 0.003-0.223 0.004-0.034 0-0.067 0.001-0.102 0.001-0.234 0.005-0.45 0.012-0.624 0.227-0.092 0.125-0.13 0.214-0.143 0.381 0.009 0.211 0.042 0.283 0.153 0.442 0.222 0.222 0.5 0.186 0.773 0.175 0.055-0.002 0.055-0.002 0.11-0.003 0.079-0.002 0.157-0.005 0.236-0.007 0.125-0.004 0.25-0.008 0.374-0.011 0.355-0.010 0.709-0.020 1.064-0.031 0.217-0.007 0.435-0.013 0.652-0.019 0.083-0.002 0.165-0.005 0.248-0.008 0.116-0.004 0.231-0.007 0.347-0.010 0.034-0.001 0.068-0.003 0.102-0.004 0.278-0.005 0.503 0.076 0.716 0.308 0.165 0.238 0.249 0.492 0.253 0.805-0.035 0.304-0.145 0.501-0.311 0.724-0.263 0.22-0.574 0.254-0.884 0.255-0.037 0.001-0.073 0.001-0.111 0.002-0.12 0.002-0.24 0.003-0.36 0.004-0.084 0.001-0.168 0.003-0.252 0.004-0.22 0.004-0.44 0.007-0.66 0.010-0.353 0.005-0.705 0.010-1.058 0.016-0.123 0.002-0.246 0.003-0.369 0.005-0.075 0.001-0.151 0.002-0.226 0.003-0.034 0-0.068 0.001-0.104 0.001-0.032 0.001-0.063 0.001-0.095 0.002-0.027 0-0.054 0.001-0.083 0.001-0.138 0.017-0.229 0.066-0.338 0.172-0.099 0.16-0.117 0.272-0.128 0.472 0.032 0.194 0.071 0.288 0.183 0.431 0.351 0.218 0.856 0.106 1.243 0.094 0.115-0.003 0.229-0.006 0.344-0.009 0.326-0.008 0.651-0.017 0.977-0.027 0.2-0.006 0.4-0.011 0.6-0.016 0.076-0.002 0.152-0.004 0.227-0.007 0.106-0.003 0.212-0.006 0.318-0.008 0.046-0.002 0.046-0.002 0.094-0.004 0.252-0.004 0.486 0.049 0.699 0.224 0.215 0.261 0.329 0.491 0.342 0.866-0.061 0.323-0.162 0.605-0.387 0.801-0.381 0.275-0.919 0.195-1.345 0.2-0.081 0.001-0.163 0.003-0.244 0.004-0.213 0.004-0.426 0.007-0.639 0.010-0.342 0.005-0.683 0.010-1.025 0.016-0.119 0.002-0.238 0.004-0.357 0.005-0.073 0.001-0.146 0.002-0.219 0.004-0.033 0-0.066 0.001-0.1 0.001-0.235 0.005-0.357 0.024-0.538 0.208-0.088 0.117-0.119 0.202-0.131 0.361 0.007 0.216 0.039 0.285 0.155 0.444 0.209 0.216 0.442 0.187 0.701 0.178 0.036-0.001 0.072-0.002 0.109-0.003 0.078-0.002 0.155-0.004 0.233-0.007 0.123-0.004 0.246-0.007 0.369-0.010 0.35-0.009 0.7-0.019 1.050-0.029 0.214-0.006 0.429-0.012 0.643-0.017 0.082-0.002 0.163-0.004 0.244-0.007 0.114-0.004 0.228-0.006 0.342-0.009 0.033-0.001 0.067-0.002 0.101-0.004 0.323-0.007 0.581 0.059 0.832 0.321 0.167 0.215 0.247 0.484 0.248 0.78-0.036 0.307-0.146 0.502-0.316 0.724-0.25 0.22-0.52 0.252-0.819 0.251-0.037 0-0.074 0.001-0.112 0.001-0.080 0.001-0.16 0.001-0.239 0.002-0.127 0-0.253 0.002-0.38 0.004-0.359 0.005-0.719 0.008-1.078 0.010-0.22 0.001-0.441 0.004-0.661 0.007-0.084 0.001-0.167 0.002-0.251 0.002-0.117 0-0.234 0.002-0.351 0.004-0.034-0-0.069-0.001-0.104-0.001-0.239 0.006-0.409 0.081-0.586 0.285-0.076 0.196-0.104 0.349-0.049 0.557 0.107 0.205 0.186 0.3 0.373 0.375 0.399 0.056 0.812 0.020 1.213 0.008 0.111-0.003 0.221-0.006 0.332-0.009 0.314-0.008 0.628-0.017 0.942-0.026 0.193-0.006 0.386-0.011 0.579-0.016 0.073-0.002 0.146-0.004 0.219-0.007 0.102-0.003 0.204-0.006 0.306-0.008 0.030-0.001 0.060-0.002 0.090-0.004 0.264-0.004 0.489 0.068 0.683 0.298 0.169 0.216 0.254 0.429 0.251 0.732-0.027 0.323-0.094 0.516-0.284 0.75-0.241 0.238-0.527 0.277-0.825 0.276-0.037 0.001-0.074 0.001-0.113 0.002-0.122 0.002-0.244 0.003-0.365 0.003-0.085 0.001-0.17 0.003-0.255 0.004-0.223 0.004-0.447 0.006-0.67 0.008-0.358 0.004-0.716 0.008-1.074 0.014-0.125 0.002-0.25 0.003-0.375 0.004-0.077 0.001-0.153 0.002-0.229 0.003-0.052 0-0.052 0-0.105 0-0.208 0.004-0.366 0.024-0.529 0.2-0.11 0.166-0.151 0.253-0.165 0.472 0.031 0.191 0.111 0.302 0.222 0.436 0.219 0.158 0.491 0.13 0.737 0.122 0.054-0.001 0.054-0.001 0.109-0.003 0.078-0.002 0.155-0.004 0.233-0.007 0.123-0.004 0.246-0.007 0.369-0.010 0.35-0.009 0.7-0.019 1.050-0.029 0.214-0.006 0.429-0.012 0.643-0.017 0.082-0.002 0.163-0.004 0.245-0.007 0.114-0.003 0.228-0.006 0.342-0.009 0.034-0.001 0.067-0.002 0.102-0.004 0.29-0.006 0.502 0.053 0.718 0.305 0.203 0.255 0.268 0.455 0.268 0.807-0.029 0.308-0.162 0.487-0.333 0.705-0.224 0.201-0.476 0.223-0.746 0.224-0.031 0.001-0.063 0.001-0.095 0.002-0.103 0.002-0.206 0.003-0.309 0.004-0.072 0.001-0.144 0.002-0.217 0.004-0.19 0.003-0.379 0.006-0.569 0.009-0.303 0.004-0.607 0.009-0.91 0.014-0.105 0.002-0.211 0.003-0.316 0.004-0.065 0.001-0.13 0.002-0.196 0.003-0.029 0-0.058 0-0.088 0.001-0.368 0.007-0.648 0.078-0.939 0.373-0.225 0.352-0.278 0.714-0.265 1.151 0.001 0.049 0.002 0.098 0.002 0.149 0.003 0.161 0.007 0.322 0.011 0.484 0.002 0.113 0.004 0.226 0.006 0.339 0.005 0.297 0.012 0.594 0.018 0.891 0.010 0.475 0.020 0.949 0.028 1.424 0.003 0.165 0.007 0.33 0.011 0.494 0.027 1.288 0.027 1.288-0.161 1.835-0.016 0.047-0.031 0.094-0.047 0.142-0.213 0.549-0.614 0.971-1.064 1.206-0.609 0.256-1.15 0.111-1.714-0.22-0.336-0.334-0.635-0.693-0.78-1.201-0.016-0.056-0.016-0.056-0.033-0.112-0.116-0.458-0.111-0.916-0.116-1.391-0.002-0.097-0.003-0.193-0.005-0.289-0.004-0.264-0.008-0.528-0.011-0.792-0.004-0.285-0.008-0.57-0.013-0.855-0.009-0.558-0.017-1.116-0.024-1.675-0.006-0.454-0.013-0.907-0.020-1.361-0.001-0.065-0.002-0.129-0.003-0.196-0.001-0.098-0.003-0.197-0.004-0.295-0.013-0.914-0.027-1.828-0.039-2.742-0-0.034-0.001-0.069-0.001-0.104-0.002-0.174-0.005-0.349-0.007-0.523-0-0.035-0.001-0.069-0.001-0.105-0.001-0.070-0.002-0.14-0.003-0.21-0.015-1.090-0.031-2.181-0.048-3.272-0.019-1.226-0.037-2.452-0.054-3.678-0.009-0.649-0.018-1.298-0.028-1.947-0.008-0.552-0.016-1.105-0.024-1.657-0.004-0.282-0.008-0.563-0.012-0.845-0.004-0.258-0.008-0.516-0.011-0.774-0.001-0.093-0.003-0.186-0.004-0.28-0.011-0.597-0.018-1.184 0.345-1.642z"></path>
      <path stroke="currentColor" fill="currentColor"
            d="M15.902 3.67c0.030-0.067 0.030-0.067 0.061-0.134 0.098-0.204 0.157-0.322 0.329-0.438 0.177-0.043 0.307 0.006 0.459 0.121 0.091 0.098 0.139 0.201 0.199 0.331 0.025 0.053 0.049 0.105 0.074 0.16 0.146 0.32 0.29 0.641 0.433 0.963 0.032 0.072 0.065 0.145 0.097 0.217 0.18 0.405 0.359 0.81 0.535 1.218 0.136 0.313 0.273 0.624 0.411 0.935 0.014 0.032 0.028 0.064 0.043 0.098 0.073 0.166 0.146 0.331 0.22 0.497 0.14 0.317 0.28 0.634 0.419 0.951 0.156 0.353 0.311 0.705 0.467 1.058 0.060 0.136 0.12 0.271 0.18 0.407 0.042 0.094 0.083 0.189 0.125 0.283 0.026 0.058 0.051 0.117 0.078 0.177 0.022 0.050 0.045 0.101 0.068 0.153 0.108 0.246 0.215 0.492 0.322 0.738 0.377-1.144 0.744-2.292 1.104-3.444 0.033-0.106 0.066-0.212 0.099-0.317 0.206-0.656 0.411-1.312 0.616-1.969 0.102-0.328 0.205-0.656 0.308-0.984 0.054-0.172 0.108-0.344 0.161-0.516 0.059-0.19 0.119-0.38 0.179-0.57 0.017-0.056 0.034-0.111 0.052-0.169 0.244-0.77 0.244-0.77 0.47-0.968 0.135-0.062 0.231-0.082 0.366-0.017 0.452 0.31 0.667 0.764 0.842 1.353 0.104 0.553 0.073 1.097 0.028 1.658-0.006 0.076-0.012 0.152-0.018 0.228-0.072 0.922-0.166 1.842-0.261 2.761-0.013 0.123-0.025 0.245-0.037 0.368-0.301 2.97-0.628 6.098-1.525 8.903-0.029 0.090-0.057 0.18-0.085 0.27-0.056 0.177-0.114 0.353-0.173 0.529-0.17 0.484-0.17 0.484-0.12 0.987 0.058 0.126 0.12 0.222 0.198 0.332 0.030-0.034 0.060-0.069 0.091-0.104 0.588-0.602 1.322-0.745 2.054-0.666 1.117 0.163 1.972 1.122 2.635 2.171 0.631 1.028 1.071 2.299 0.98 3.614-0.053 0.438-0.163 0.841-0.296 1.252-0.038 0.21-0.007 0.309 0.068 0.499 0.122 0.234 0.394 0.389 0.605 0.472 0.135 0.030 0.27 0.042 0.408 0.055 0.354 0.037 0.661 0.083 0.904 0.427 0.139 0.24 0.208 0.472 0.23 0.77-0.072 0.393-0.233 0.72-0.504 0.951-0.631 0.445-1.288 0.474-1.975 0.25-0.254-0.092-0.471-0.231-0.696-0.399-0.035-0.026-0.070-0.051-0.106-0.078-0.257-0.192-0.482-0.411-0.707-0.656-0.152-0.16-0.262-0.255-0.469-0.24-0.096 0.020-0.191 0.041-0.287 0.063-0.635 0.122-1.225-0.14-1.759-0.537-0.043-0.032-0.086-0.063-0.13-0.096-0.379-0.288-0.7-0.612-1.004-1.011-0.025-0.033-0.051-0.066-0.077-0.099-0.761-0.997-1.434-2.215-1.913-3.454-0.020 0.051-0.040 0.101-0.060 0.154-1.884 4.813-1.884 4.813-3.561 5.646-0.698 0.303-1.407 0.329-2.087-0.047-0.175-0.108-0.345-0.225-0.515-0.346-0.041-0.029-0.082-0.059-0.125-0.089-0.673-0.501-1.13-1.263-1.327-2.207-0.204-1.337 0.143-2.579 0.7-3.723 0.016-0.032 0.031-0.064 0.047-0.097 0.591-1.213 1.384-2.22 2.516-2.623 0.803-0.23 1.544-0.028 2.239 0.477 0.158-0.328 0.316-0.655 0.479-0.993-0.048-0.077-0.096-0.154-0.145-0.233-0.518-0.998-1.037-2.026-1.321-3.167-0.030-0.119-0.062-0.236-0.095-0.354-0.338-1.228-0.592-2.485-0.848-3.743-0.045-0.221-0.090-0.442-0.135-0.663-0.035-0.173-0.071-0.346-0.106-0.519-0.017-0.082-0.033-0.163-0.050-0.245-0.081-0.397-0.16-0.793-0.214-1.198-0.029-0.205-0.073-0.405-0.116-0.606-0.065-0.308-0.122-0.615-0.164-0.929-0.021-0.142-0.050-0.279-0.080-0.417-0.074-0.356-0.116-0.716-0.153-1.081-0.007-0.063-0.013-0.126-0.020-0.191-0.072-0.802 0.028-1.464 0.362-2.159zM16.465 5.209c0.048 0.66 0.13 1.296 0.266 1.937 0.026 0.131 0.045 0.261 0.063 0.394 0.043 0.309 0.107 0.61 0.172 0.913 0.033 0.159 0.057 0.319 0.080 0.481 0.051 0.357 0.125 0.706 0.199 1.057 0.082 0.391 0.159 0.778 0.215 1.176 0.044 0.289 0.105 0.574 0.163 0.859 0.012 0.061 0.025 0.121 0.037 0.184 0.066 0.324 0.139 0.641 0.225 0.958 0.043 0.164 0.076 0.329 0.108 0.496 0.052 0.259 0.108 0.513 0.177 0.766 0.036 0.131 0.070 0.262 0.104 0.395 0.273 1.064 0.663 1.978 1.123 2.93 0.164 0.341 0.32 0.687 0.472 1.035 0.081 0.205 0.081 0.205 0.213 0.353 0.013-0.033 0.027-0.065 0.041-0.099 0.091-0.207 0.154-0.347 0.317-0.476 0.18-0.032 0.27 0.013 0.427 0.122 0.096 0.117 0.137 0.201 0.177 0.36-0.013 0.21-0.081 0.366-0.191 0.524-0.161 0.115-0.237 0.131-0.42 0.098-0.040-0.014-0.079-0.029-0.12-0.044 0.031 0.193 0.093 0.342 0.171 0.513 0.026 0.057 0.052 0.114 0.079 0.172 0.028 0.061 0.056 0.122 0.085 0.185 0.044 0.097 0.089 0.194 0.133 0.291 0.030 0.066 0.061 0.133 0.091 0.199 0.123 0.268 0.244 0.538 0.364 0.809 1.321 3.152 1.321 3.152 3.571 5.176 0.434 0.137 0.816 0.095 1.229-0.121 0.031-0.016 0.061-0.031 0.093-0.047 0.525-0.301 0.976-0.845 1.194-1.508 0.211-0.842 0.070-1.726-0.252-2.49-0.259-0.586-0.576-1.091-0.948-1.575-0.029-0.038-0.057-0.076-0.087-0.115-0.432-0.523-1.023-0.887-1.634-0.901-0.474 0.035-0.857 0.257-1.256 0.566-0.257 0.196-0.475 0.265-0.774 0.244-0.366-0.168-0.586-0.475-0.759-0.899-0.309-0.869-0.446-1.798-0.511-2.741-0.069-1.004-0.206-1.986-0.513-2.921-0.012-0.037-0.024-0.074-0.036-0.112-0.229-0.697-0.52-1.345-0.821-1.996-0.167-0.36-0.325-0.726-0.484-1.092-0.076-0.176-0.154-0.351-0.231-0.527-0.015-0.035-0.031-0.070-0.046-0.106-0.048-0.108-0.096-0.217-0.143-0.325-0.034-0.078-0.069-0.156-0.103-0.234-0.296-0.673-0.593-1.346-0.89-2.019-0.084-0.19-0.168-0.38-0.251-0.569-0.345-0.781-0.69-1.562-1.035-2.343-0.041 0.033-0.041 0.033-0.084 0.067zM14.006 26.12c0.227 0.734 0.703 1.184 1.254 1.526 0.451 0.223 0.961 0.308 1.427 0.083 0.751-0.423 1.318-1.178 1.74-2.041 0.019-0.039 0.038-0.078 0.058-0.118 0.062-0.128 0.125-0.256 0.187-0.384 0.021-0.044 0.043-0.088 0.065-0.133 0.341-0.707 0.658-1.427 0.959-2.161 0.019-0.046 0.038-0.092 0.057-0.139 0.053-0.13 0.106-0.26 0.159-0.391 0.023-0.058 0.023-0.058 0.047-0.116 0.079-0.198 0.146-0.374 0.149-0.596-0.042-0.149-0.042-0.149-0.112-0.294-0.036-0.081-0.036-0.081-0.073-0.164-0.026-0.056-0.052-0.111-0.078-0.169-0.038-0.085-0.038-0.085-0.077-0.171-0.107-0.275-0.107-0.275-0.277-0.481-0.028 0.054-0.056 0.107-0.084 0.163-0.038 0.071-0.075 0.142-0.113 0.213-0.018 0.035-0.036 0.071-0.055 0.107-0.148 0.276-0.294 0.45-0.559 0.54-0.294 0.010-0.509-0.127-0.763-0.291-0.509-0.318-1.013-0.395-1.567-0.204-1.513 0.668-2.785 3.291-2.342 5.22zM23.524 4.862c-0.016 0.050-0.016 0.050-0.033 0.102-0.037 0.113-0.073 0.226-0.11 0.339-0.026 0.081-0.053 0.162-0.079 0.243-0.24 0.739-0.477 1.48-0.714 2.22-0.159 0.498-0.319 0.996-0.481 1.492-0.141 0.433-0.281 0.867-0.419 1.302-0.073 0.23-0.147 0.46-0.222 0.689-0.071 0.216-0.14 0.432-0.208 0.649-0.025 0.079-0.051 0.158-0.077 0.237-0.153 0.44-0.153 0.44-0.129 0.903 0.065 0.159 0.136 0.303 0.217 0.45 0.104 0.269 0.184 0.553 0.267 0.833 0.011 0.038 0.023 0.076 0.034 0.115 0.223 0.757 0.382 1.524 0.432 2.331 0.107-0.118 0.153-0.211 0.194-0.38 0.011-0.045 0.022-0.091 0.034-0.138 0.017-0.076 0.017-0.076 0.035-0.154 0.013-0.055 0.025-0.109 0.038-0.165 0.772-3.437 1.113-7.049 1.377-10.586 0.003-0.041 0.006-0.081 0.009-0.123 0.008-0.112 0.017-0.225 0.024-0.337 0.005-0.063 0.009-0.126 0.014-0.191 0.014-0.146 0.014-0.146-0.051-0.249-0.064 0.133-0.106 0.274-0.152 0.417zM26.988 27.543c0.53 0.554 1.041 0.966 1.768 0.933 0.117-0.014 0.117-0.014 0.251-0.105-0.053-0.009-0.106-0.019-0.16-0.028-0.614-0.163-1.124-0.552-1.562-1.095-0.171 0.119-0.171 0.119-0.297 0.295z"></path>
      <path stroke="currentColor" fill="currentColor"
            d="M16.469 21.317c0.425-0.152 0.831-0.061 1.225 0.168 0.466 0.323 0.777 0.696 0.938 1.34 0.198 1.082-0.233 2.021-0.685 2.917-0.354 0.679-0.793 1.287-1.435 1.541-0.514 0.127-0.964-0.038-1.397-0.364-0.384-0.321-0.617-0.698-0.742-1.255-0.206-1.603 0.883-3.768 2.097-4.348zM15.338 25.474c0.106 0.337 0.358 0.5 0.617 0.64 0.267 0.039 0.479-0.066 0.692-0.263 0.549-0.655 1.052-1.574 1.071-2.541-0.043-0.283-0.081-0.429-0.274-0.597-0.261-0.199-0.261-0.199-0.553-0.299-0.539 0.191-0.864 0.737-1.136 1.309-0.033 0.068-0.033 0.068-0.066 0.138-0.23 0.494-0.442 1.032-0.352 1.613z"></path>
      <path stroke="currentColor" fill="currentColor"
            d="M23.727 20.898c0.429-0.235 0.875-0.264 1.312-0.069 0.882 0.496 1.556 1.599 1.929 2.683 0.151 0.525 0.197 1.124 0.026 1.652-0.24 0.614-0.612 1.053-1.135 1.284-0.432 0.165-0.798 0.164-1.204-0.084-0.873-0.575-1.535-1.647-1.849-2.797-0.261-1.123 0.080-2.090 0.921-2.67zM23.7 23.023c0.14 0.82 0.619 1.605 1.145 2.114 0.206 0.157 0.417 0.291 0.663 0.226 0.266-0.135 0.457-0.313 0.589-0.632 0.106-0.387-0.014-0.72-0.151-1.070-0.169-0.41-0.383-0.766-0.623-1.115-0.023-0.034-0.046-0.067-0.069-0.102-0.213-0.285-0.502-0.529-0.818-0.566-0.503 0.145-0.808 0.494-0.737 1.146z"></path>
    </symbol>
    <symbol id="icon-arrow-right-2" viewBox="0 0 39 32">
      <path
        d="M37.953 17.096c0.2-0.524 0.252-1.1 0.15-1.655s-0.353-1.066-0.722-1.467l-10.55-11.458c-0.243-0.274-0.534-0.492-0.856-0.642s-0.668-0.229-1.018-0.232c-0.35-0.003-0.697 0.069-1.022 0.213s-0.619 0.357-0.866 0.626c-0.248 0.269-0.444 0.589-0.576 0.941s-0.199 0.729-0.196 1.11c0.003 0.38 0.076 0.756 0.214 1.106s0.339 0.666 0.591 0.93l6.051 6.571h-25.283c-0.7 0-1.37 0.302-1.865 0.839s-0.772 1.266-0.772 2.025c0 0.76 0.278 1.488 0.772 2.025s1.166 0.839 1.865 0.839h25.283l-6.048 6.568c-0.252 0.264-0.453 0.58-0.591 0.93s-0.211 0.725-0.214 1.106c-0.003 0.381 0.064 0.758 0.196 1.11s0.328 0.672 0.576 0.941c0.248 0.269 0.542 0.482 0.866 0.626s0.671 0.216 1.022 0.213c0.35-0.003 0.696-0.082 1.018-0.232s0.613-0.369 0.856-0.642l10.55-11.458c0.244-0.267 0.438-0.583 0.57-0.931v0z"></path>
    </symbol>
    <symbol id="icon-arrow-left-2" viewBox="0 0 39 32">
      <path fill="#126a57" style="fill: var(--color2, #126a57)"
            d="M35.517 13.161h-25.28l6.047-6.584c0.252-0.265 0.453-0.582 0.591-0.932s0.211-0.727 0.214-1.108c0.003-0.381-0.064-0.759-0.196-1.112s-0.328-0.673-0.576-0.943c-0.248-0.27-0.542-0.483-0.866-0.627s-0.671-0.217-1.022-0.214c-0.35 0.003-0.696 0.083-1.018 0.233s-0.613 0.369-0.856 0.643l-10.549 11.485c-0.246 0.267-0.44 0.584-0.573 0.932s-0.201 0.723-0.201 1.1c0 0.378 0.068 0.752 0.201 1.1s0.328 0.666 0.573 0.932l10.549 11.485c0.497 0.523 1.164 0.813 1.855 0.806s1.353-0.308 1.842-0.841c0.489-0.532 0.766-1.252 0.772-2.005s-0.26-1.478-0.74-2.019l-6.047-6.59h25.28c0.7 0 1.37-0.303 1.865-0.841s0.772-1.269 0.772-2.030c0-0.761-0.278-1.492-0.772-2.030s-1.165-0.841-1.865-0.841z"></path>
    </symbol>
    <symbol id="icon-clock" viewBox="0 0 32 32">
      <path fill="#def7ec" style="fill: var(--color1, #def7ec)"
            d="M16.801 0.119c-2.95 0-5.834 0.875-8.287 2.514s-4.365 3.969-5.494 6.694c-1.129 2.726-1.424 5.725-0.849 8.618s1.996 5.551 4.082 7.637c2.086 2.086 4.744 3.507 7.637 4.082s5.893 0.28 8.618-0.849c2.726-1.129 5.055-3.041 6.694-5.494s2.514-5.337 2.514-8.287c-0.004-3.955-1.577-7.746-4.374-10.542s-6.588-4.369-10.542-4.374v0zM22.741 20.975c-0.28 0.28-0.659 0.437-1.055 0.437s-0.775-0.157-1.055-0.437l-4.883-4.884c-0.279-0.281-0.437-0.66-0.439-1.056v-5.966c0-0.396 0.157-0.775 0.437-1.055s0.659-0.437 1.055-0.437c0.396 0 0.775 0.157 1.055 0.437s0.437 0.659 0.437 1.055v5.349l4.448 4.448c0.28 0.28 0.437 0.659 0.437 1.055s-0.157 0.775-0.437 1.055v0z"></path>
    </symbol>
  </defs>
</svg>
