<svg width="104" height="34" viewBox="0 0 104 34" fill="none" xmlns="http://www.w3.org/2000/svg">
<path d="M17.16 17.1475C25.3775 14.4625 25.8225 4.41501 36.6525 2.29251C45.315 0.595012 50.52 6.56501 51.8125 12.9025C52.895 18.2075 49.6475 32 32.32 32C10.6625 32 3.445 18.2075 2 12.9025C4.165 15.025 10.6625 19.27 17.16 17.1475Z" stroke="#112824" stroke-width="4" stroke-linejoin="round"/>
<path d="M86.8396 17.1475C78.6196 14.4625 78.1771 4.41501 67.3471 2.29251C58.6846 0.595012 53.4796 6.56501 52.1871 12.9025C51.1046 18.2075 54.3521 32 71.6796 32C93.3371 32 100.555 18.2075 102 12.9025C99.8346 15.025 93.3371 19.27 86.8396 17.1475Z" stroke="#112824" stroke-width="4" stroke-linejoin="round"/>
</svg>
