<svg width="0" height="0" class="hidden">
  <symbol fill="none" xmlns="http://www.w3.org/2000/svg" viewBox="0 0 120 120" id="hairstylesWedding">
    <path d="M76.243 30.0187C76.2285 30.5164 76.4514 31.0125 76.884 31.329C85.9656 37.9654 91.9653 48.2495 92.5478 58.1797V59.2027C92.5536 71.5209 92.5633 92.1343 86.2471 108.447C85.9344 109.252 86.335 110.158 87.1401 110.471C87.3258 110.543 87.5174 110.577 87.7049 110.577V110.578C88.3323 110.578 88.9225 110.199 89.1628 109.579C95.6903 92.721 95.6804 71.7381 95.6746 59.2027V58.1346C95.6746 58.1033 95.6726 58.0741 95.6726 58.0447C95.2998 51.5125 92.7997 44.8528 88.7243 39.019C90.2722 40.7747 91.9063 42.8726 93.523 45.3519C97.885 52.0431 101.235 60.0898 103.478 69.2708C106.294 80.795 107.365 94.1402 106.664 108.938C106.623 109.801 107.289 110.535 108.151 110.576H108.227L108.229 110.574C109.058 110.574 109.75 109.92 109.789 109.083C110.508 93.8956 109.39 80.1809 106.464 68.3163C104.109 58.7695 100.586 50.3884 95.9874 43.4058C88.0725 31.3829 79.7628 27.6823 79.4129 27.5297C79.3436 27.4995 79.2732 27.4747 79.2023 27.4553C78.6421 23.1255 76.691 19.1049 73.5695 15.9303C69.8095 12.1065 64.826 10 59.5377 10C49.1851 10 40.6609 18.0361 39.7804 28.2465C37.5858 29.5399 31.3338 33.8305 25.095 43.7114C20.6979 50.6745 17.1996 59.0184 14.6942 68.5085C11.5791 80.3066 10 93.9353 10 109.011C10 109.876 10.6996 110.576 11.5634 110.576L11.5673 110.578C12.4312 110.578 13.1308 109.878 13.1308 109.013C13.1308 94.303 14.6552 81.0205 17.6608 69.5334C19.9215 60.8911 23.0225 53.2432 26.8833 46.78C25.5284 50.4239 24.715 54.2286 24.495 58.0097C23.8716 64.1825 24.2878 91.4302 32.6053 109.661C32.8672 110.236 33.434 110.577 34.0281 110.577L34.0301 110.575C34.247 110.575 34.4678 110.53 34.6788 110.434C35.4626 110.074 35.8084 109.147 35.4508 108.361C26.8245 89.449 27.2486 61.81 27.6102 58.2933C27.6108 58.2855 27.6116 58.2777 27.6125 58.2698L27.6135 58.2609C27.6141 58.2554 27.6146 58.2501 27.6151 58.2446C27.6156 58.2373 27.616 58.2301 27.616 58.2228C28.2121 47.7725 33.7994 37.4374 42.1971 31.2548C42.6335 30.9333 42.8546 30.4279 42.8324 29.924C42.8696 20.6573 50.35 13.1294 59.5377 13.1294C63.9817 13.1294 68.1737 14.9035 71.3417 18.1248C74.4911 21.3296 76.2314 25.5523 76.243 30.0187Z" fill="#112824"></path>
    <path d="M46.6506 101.599C51.6522 106.412 57.0356 108.293 60.1246 108.293C64.2007 108.293 69.0632 105.899 73.2779 101.852V109.011C73.2779 109.875 73.9776 110.576 74.8415 110.576C75.7052 110.576 76.4049 109.875 76.4049 109.011V98.7266C76.4049 98.6229 76.3949 98.5217 76.3756 98.4237C79.4448 94.5229 82.6895 88.7003 84.2357 80.4858C84.396 79.6369 83.8371 78.8193 82.9889 78.659C82.1407 78.4986 81.3239 79.0579 81.1636 79.9068C79.3441 89.5788 75.0232 95.6264 71.7204 98.9946C67.2588 103.544 62.8049 105.165 60.1236 105.165C56.7758 105.165 49.5117 102.056 44.2722 93.7136C40.819 88.2155 39.0952 81.5322 39.2849 74.3834L39.3493 71.9835C46.7875 71.735 54.2489 69.6853 60.5164 66.1489C64.6028 63.843 67.8176 61.1066 69.6039 58.5092C70.7609 59.9424 72.3444 61.1651 73.9832 62.4304L73.9914 62.4367C77.681 65.2825 81.4959 68.2281 81.4959 74.1389C81.4959 75.0034 82.1954 75.7036 83.0593 75.7036C83.923 75.7036 84.6227 75.0034 84.6227 74.1389C84.6227 66.6888 79.7858 62.955 75.8987 59.9565L75.8954 59.9541C73.5517 58.1459 71.5267 56.5837 71.0345 54.6678C70.8547 53.9656 70.2116 53.4805 69.4867 53.4942C68.7616 53.5099 68.1421 54.0243 67.9916 54.7343C67.5773 56.7039 64.5793 60.2617 58.9803 63.4225C52.7481 66.9411 45.2337 68.8794 37.8269 68.8794C36.9788 68.8794 36.287 69.5562 36.2635 70.403L36.1599 74.2992C35.9527 82.0661 37.8446 89.3558 41.6261 95.3781C42.2623 96.3912 42.9261 97.3353 43.6096 98.2136C43.554 98.3743 43.5237 98.5469 43.5237 98.7266V109.011C43.5237 109.875 44.2234 110.576 45.0871 110.576C45.951 110.576 46.6506 109.875 46.6506 109.011V101.599Z" fill="#112824"></path>
    <path d="M49.0868 29.2107C49.0868 30.0749 48.3869 30.7754 47.5234 30.7754C46.66 30.7754 45.96 30.0749 45.96 29.2107C45.96 28.3465 46.66 27.646 47.5234 27.646C48.3869 27.646 49.0868 28.3465 49.0868 29.2107Z" fill="#112824"></path>
    <path d="M53.7763 30.7754C54.6397 30.7754 55.3398 30.0749 55.3398 29.2107C55.3398 28.3465 54.6397 27.646 53.7763 27.646C52.9129 27.646 52.2129 28.3465 52.2129 29.2107C52.2129 30.0749 52.9129 30.7754 53.7763 30.7754Z" fill="#112824"></path>
    <path d="M61.5937 29.2107C61.5937 30.0749 60.8938 30.7754 60.0303 30.7754C59.1668 30.7754 58.4668 30.0749 58.4668 29.2107C58.4668 28.3465 59.1668 27.646 60.0303 27.646C60.8938 27.646 61.5937 28.3465 61.5937 29.2107Z" fill="#112824"></path>
    <path d="M66.2832 30.7754C67.1466 30.7754 67.8466 30.0749 67.8466 29.2107C67.8466 28.3465 67.1466 27.646 66.2832 27.646C65.4196 27.646 64.7197 28.3465 64.7197 29.2107C64.7197 30.0749 65.4196 30.7754 66.2832 30.7754Z" fill="#112824"></path>
    <path d="M74.1005 29.2107C74.1005 30.0749 73.4006 30.7754 72.5371 30.7754C71.6737 30.7754 70.9736 30.0749 70.9736 29.2107C70.9736 28.3465 71.6737 27.646 72.5371 27.646C73.4006 27.646 74.1005 28.3465 74.1005 29.2107Z" fill="#112824"></path>
  </symbol>
  <symbol fill="none" xmlns="http://www.w3.org/2000/svg" viewBox="0 0 120 120" id="injectionsOfBeauty">
    <path d="M109.443 23.0435L97.068 10.6689C96.1761 9.77703 94.8384 9.77703 93.9465 10.6689C93.0546 11.5608 93.0546 12.8986 93.9465 13.7904L96.3991 16.243L86.3657 26.2765L77.0011 16.9119C76.1093 16.0201 74.7715 16.0201 73.8796 16.9119C72.9877 17.8038 72.9877 19.1416 73.8796 20.0334L76.1093 22.2631L26.0535 72.2074C24.1583 74.1026 24.1583 77.1126 26.0535 79.0078L28.7291 81.6834L20.8138 89.5987C18.6957 91.7168 18.2497 94.8384 19.476 97.4025L10.6689 106.21C9.77703 107.101 9.77703 108.439 10.6689 109.331C11.1148 109.777 11.6722 110 12.2297 110C12.7871 110 13.3445 109.777 13.7904 109.331L22.5975 100.524C23.4894 100.97 24.6042 101.193 25.6076 101.193C27.3913 101.193 29.175 100.524 30.5128 99.1862L38.4281 91.2709L41.1037 93.9465C41.9955 94.8384 43.2219 95.3958 44.4482 95.3958C45.6745 95.3958 46.9008 94.9498 47.7926 93.9465L97.8484 43.8908L100.078 46.1204C100.524 46.5663 101.081 46.7893 101.639 46.7893C102.196 46.7893 102.754 46.5663 103.2 46.1204C104.091 45.2285 104.091 43.8907 103.2 42.9989L93.835 33.6343L103.868 23.6009L106.321 26.0535C106.767 26.4994 107.324 26.7224 107.882 26.7224C108.439 26.7224 108.997 26.4994 109.443 26.0535C110.334 25.2731 110.334 23.9353 109.443 23.0435ZM89.5987 29.398L99.6321 19.3645L100.747 20.4794L90.7135 30.5128L89.5987 29.398ZM27.3913 96.1762C26.4994 97.068 24.9387 97.068 24.0468 96.1762C23.155 95.2843 23.155 93.7235 24.0468 92.8317L31.9621 84.9164L35.4181 88.2609L27.3913 96.1762ZM44.6711 90.9365C44.5596 91.0479 44.3367 91.0479 44.2252 90.9365L29.175 75.8863C29.0635 75.7748 29.0635 75.5518 29.175 75.4404L79.2308 25.3846L94.7269 40.8807L44.6711 90.9365ZM72.0959 58.495C72.9877 59.3868 72.9877 60.7246 72.0959 61.6165C71.6499 62.0624 71.0925 62.2854 70.5351 62.2854C69.9777 62.2854 69.4203 62.0624 68.9744 61.6165L65.1839 57.8261C64.2921 56.9342 64.2921 55.5964 65.1839 54.7046C66.0758 53.8127 67.4136 53.8127 68.3055 54.7046L72.0959 58.495ZM79.4537 51.1371C80.3456 52.029 80.3456 53.3668 79.4537 54.2586C79.0078 54.7046 78.4504 54.9275 77.893 54.9275C77.3356 54.9275 76.7782 54.7046 76.3322 54.2586L74.437 52.3634C73.5452 51.4716 73.5452 50.1338 74.437 49.2419C75.3289 48.3501 76.6667 48.3501 77.5585 49.2419L79.4537 51.1371ZM79.8997 40.1003C80.7915 39.2085 82.1293 39.2085 83.0212 40.1003L86.8116 43.8908C87.7035 44.7826 87.7035 46.1204 86.8116 47.0123C86.3657 47.4582 85.8083 47.6812 85.2508 47.6812C84.6934 47.6812 84.136 47.4582 83.6901 47.0123L79.8997 43.2219C79.0078 42.33 79.0078 40.9922 79.8997 40.1003ZM64.738 65.8528C65.6299 66.7447 65.6299 68.0825 64.738 68.9744C64.2921 69.4203 63.7347 69.6433 63.1773 69.6433C62.6198 69.6433 62.0624 69.4203 61.6165 68.9744L59.7213 67.0792C58.8294 66.1873 58.8294 64.8495 59.7213 63.9576C60.6132 63.0658 61.951 63.0658 62.8428 63.9576L64.738 65.8528ZM50.0223 80.5686C50.9142 81.4604 50.9142 82.7982 50.0223 83.6901C49.5764 84.136 49.019 84.359 48.4615 84.359C47.9041 84.359 47.3467 84.136 46.9008 83.6901L45.0056 81.7949C44.1137 80.903 44.1137 79.5652 45.0056 78.6734C45.8974 77.7815 47.2352 77.7815 48.1271 78.6734L50.0223 80.5686ZM57.3802 73.2107C58.272 74.1026 58.272 75.4404 57.3802 76.3322C56.9342 76.7782 56.3768 77.0011 55.8194 77.0011C55.262 77.0011 54.7046 76.7782 54.2586 76.3322L50.4682 72.5418C49.5764 71.6499 49.5764 70.3122 50.4682 69.4203C51.3601 68.5284 52.6979 68.5284 53.5897 69.4203L57.3802 73.2107Z" fill="#112824"></path>
  </symbol>
  <symbol fill="none" xmlns="http://www.w3.org/2000/svg" viewBox="0 0 120 120" id="makeup">
    <path d="M86.0441 52.4736C77.353 52.4736 70.3174 59.5092 70.3174 68.2003V110H101.357V68.2003C101.771 59.5092 94.7352 52.4736 86.0441 52.4736Z" stroke="#112824" stroke-width="4" stroke-miterlimit="10" stroke-linecap="round" stroke-linejoin="round"></path>
    <path d="M70.7324 98.412H101.772" stroke="#112824" stroke-width="4" stroke-miterlimit="10" stroke-linecap="round" stroke-linejoin="round"></path>
    <path d="M51.6951 110H19V67.3723C19 64.4752 21.4832 61.9921 24.3802 61.9921H46.3148C49.2119 61.9921 51.6951 64.4752 51.6951 67.3723V110Z" stroke="#112824" stroke-width="4" stroke-miterlimit="10" stroke-linecap="round" stroke-linejoin="round"></path>
    <path d="M19.8271 73.5801H51.2807" stroke="#112824" stroke-width="4" stroke-miterlimit="10" stroke-linecap="round" stroke-linejoin="round"></path>
    <path d="M48.383 36.3325H22.7236V61.9919H48.383V36.3325Z" stroke="#112824" stroke-width="4" stroke-miterlimit="10" stroke-linecap="round" stroke-linejoin="round"></path>
    <path d="M44.2462 36.3326H26.4502V18.9504L40.5215 10.2593C42.1769 9.43154 44.2462 10.6732 44.2462 12.7425V36.3326Z" stroke="#112824" stroke-width="4" stroke-miterlimit="10" stroke-linecap="round" stroke-linejoin="round"></path>
  </symbol>
  <symbol fill="none" xmlns="http://www.w3.org/2000/svg" viewBox="0 0 120 120" id="manicure">
    <path d="M73.8386 23.5135V52.8572C73.8386 60.5792 67.6609 66.3707 60.325 66.3707C52.603 66.3707 46.8115 60.1931 46.8115 52.8572V23.5135C46.8115 15.7915 52.9891 10 60.325 10C64.186 10 67.6609 11.5444 69.9776 13.861C72.2942 16.1776 73.8386 19.6525 73.8386 23.5135Z" stroke="#112824" stroke-width="4" stroke-miterlimit="10" stroke-linecap="round" stroke-linejoin="round"></path>
    <path d="M36 110V45.521C36 39.3434 40.6333 34.3241 46.4248 33.5519V52.8569C46.4248 60.5789 52.6024 66.3704 59.9383 66.3704C67.6603 66.3704 73.4518 60.1928 73.4518 52.8569V33.5519C79.2433 34.3241 83.8764 39.3434 83.8764 45.521V110" stroke="#112824" stroke-width="4" stroke-miterlimit="10" stroke-linecap="round" stroke-linejoin="round"></path>
    <path d="M54.1465 90.6953H66.1156" stroke="#112824" stroke-width="4" stroke-miterlimit="10" stroke-linecap="round" stroke-linejoin="round"></path>
  </symbol>
  <symbol fill="none" xmlns="http://www.w3.org/2000/svg" viewBox="0 0 120 120" id="pedicure">
    <path fill-rule="evenodd" clip-rule="evenodd" d="M18.8509 38.7759C17.3766 42.9286 14.3797 46.7857 13.225 50.7659C11.5046 56.662 13.5689 60.763 18.6048 63.8358C22.1422 65.9967 25.6314 66.7557 29.3896 68.2312C35.7515 70.7129 41.1807 75.1105 42.532 82.1095C44.0304 89.9216 47.5679 95.598 55.6996 97.2667C60.2203 98.1763 68.2278 97.2931 71.6687 98.9158C79.2346 102.451 83.1412 100.436 84.443 97.7842L83.8772 97.6899C80.4628 97.1735 76.1882 95.6958 76.5562 91.4948L76.5804 91.1268C71.2248 89.8514 66.5086 87.9849 64.2971 82.4315C62.4789 77.8602 61.2266 73.3188 59.8741 68.5773C58.1296 62.4811 56.1642 57.252 53.0454 51.6997C47.8381 42.3892 44.2271 30.1796 43.4152 18.4598C43.2185 16.7658 45.8969 16.3242 46.0441 18.3367C46.8307 29.6413 50.3187 41.4807 55.3304 50.4221C58.5482 56.1675 60.6125 61.5737 62.4053 67.8632C63.7071 72.5081 64.9353 76.9759 66.7282 81.4747C69.5296 88.5254 78.0535 88.254 84.1705 90.3666C91.2212 92.7724 87.4871 109.21 70.5359 101.273C67.9817 100.069 59.0875 100.635 55.1579 99.8243C45.9693 97.9555 41.6706 91.4936 39.9513 82.6006C38.7967 76.5343 33.908 72.8013 28.4294 70.6646C24.4986 69.1397 20.96 68.3289 17.2271 66.0691C11.2079 62.3834 8.65259 57.0783 10.6916 50.0276C11.9198 45.8519 14.8926 42.1167 16.391 37.8915C18.8486 30.9892 17.1293 25.2391 14.2302 18.8761C13.4688 17.2787 15.9494 16.1759 16.6371 17.7962C19.8342 24.7986 21.5534 31.187 18.8509 38.7759ZM100.46 45.8025L107.535 49.0478C109.648 50.0299 110.582 52.5358 109.624 54.6472L104.39 66.0714C103.408 68.1852 100.902 69.1167 98.7894 68.1576L96.4066 67.0777L91.0521 78.7216C91.0521 78.7216 91.2488 84.8868 91.2982 87.3202C91.5685 89.8272 89.4559 89.6294 88.8165 89.335L82.1349 86.2645C81.5197 85.9954 79.9982 84.5188 82.0613 83.0709C83.929 81.5483 88.7429 77.667 88.7429 77.667L94.0744 65.999L91.6915 64.9168C89.579 63.937 88.6451 61.4288 89.6043 59.3174L94.861 47.8932C95.8178 45.7772 98.3478 44.8434 100.46 45.8025ZM84.3694 84.4935L88.7176 86.4853L88.5957 81.032L84.3694 84.4935ZM99.3794 48.1358L106.48 51.3789C107.314 51.7745 107.682 52.7578 107.29 53.5892L102.058 65.0134C101.689 65.8518 100.682 66.2198 99.8463 65.8242C97.4876 64.7455 95.1289 63.6633 92.7472 62.5812C91.9353 62.2155 91.5685 61.2046 91.9353 60.3731L97.169 48.9466C97.5612 48.1129 98.5445 47.7425 99.3794 48.1358ZM84.9099 95.2059C84.7869 94.0742 84.2464 93.1439 83.3378 92.823C81.9866 92.3803 80.5617 92.0387 79.1622 91.7179C78.9414 94.3698 82.9687 94.9115 84.9099 95.2059ZM23.9857 44.5754C18.3104 53.5145 19.5145 58.0145 29.538 62.0418C31.1848 62.6571 30.2015 65.1859 28.5559 64.4741C17.0097 59.8062 15.2157 53.4949 21.7754 43.1747C22.6597 41.6762 24.969 43.1022 23.9857 44.5754Z" fill="#112824"></path>
  </symbol>
  <symbol fill="none" xmlns="http://www.w3.org/2000/svg" viewBox="0 0 120 120" id="proceduresForEyebrows">
    <path d="M71.6751 43C52.5127 43 22.4003 52.5812 14.1879 59.4249C5.9754 66.2687 11.4504 78.5874 16.9254 75.8499C22.4003 73.1124 58.5352 59.9724 71.6751 56.6874C84.8151 53.4025 103.613 58.9678 110 62.1624C103.613 56.6874 90.8376 43 71.6751 43Z" stroke="#112824" stroke-width="4" stroke-linejoin="round"></path>
  </symbol>
  <symbol fill="none" xmlns="http://www.w3.org/2000/svg" viewBox="0 0 120 120" id="proceduresForEyelashes">
    <path d="M110 33C101.463 52.5122 83.1706 65.927 59.9998 65.927C36.829 65.927 18.5366 52.5122 10 33" stroke="#112824" stroke-width="4" stroke-miterlimit="10" stroke-linecap="round" stroke-linejoin="round"></path>
    <path d="M59.9922 67.1479V86.6553" stroke="#112824" stroke-width="4" stroke-miterlimit="10" stroke-linecap="round" stroke-linejoin="round"></path>
    <path d="M79.5 63.4883L89.2563 83.0006" stroke="#112824" stroke-width="4" stroke-miterlimit="10" stroke-linecap="round" stroke-linejoin="round"></path>
    <path d="M40.4762 63.4883L31.9395 83.0006" stroke="#112824" stroke-width="4" stroke-miterlimit="10" stroke-linecap="round" stroke-linejoin="round"></path>
  </symbol>
  <symbol fill="none" xmlns="http://www.w3.org/2000/svg" viewBox="0 0 120 120" id="removalOfHair">
    <path d="M63.434 28.9937L58.5363 31.1163C57.872 31.4032 57.5694 32.1737 57.8563 32.8379C58.0686 33.3332 58.5521 33.628 59.0591 33.628C59.2321 33.628 59.4089 33.5926 59.5779 33.5179L64.4756 31.3953C65.1399 31.1084 65.4425 30.3379 65.1556 29.6737C64.8686 29.0094 64.0982 28.7068 63.434 28.9937Z" fill="#112824"></path>
    <path d="M64.9787 34.3242L63.1823 38.9074C62.919 39.5795 63.2492 40.3381 63.9252 40.6015C64.0825 40.6644 64.2436 40.6919 64.4009 40.6919C64.9236 40.6919 65.4189 40.3774 65.6193 39.8586L67.4157 35.2754C67.6791 34.6033 67.3489 33.8446 66.6728 33.5813C66.0007 33.3179 65.242 33.6481 64.9787 34.3242Z" fill="#112824"></path>
    <path d="M57.7551 24.4187L62.2793 26.2268C62.4366 26.2897 62.6016 26.3211 62.7628 26.3211C63.2817 26.3211 63.773 26.0106 63.9774 25.4957C64.2446 24.8235 63.9184 24.0649 63.2463 23.7976L58.722 21.9895C58.0499 21.7222 57.2912 22.0485 57.024 22.7206C56.7567 23.3928 57.083 24.1514 57.7551 24.4187Z" fill="#112824"></path>
    <path d="M85.2726 79.4525C85.025 79.4093 84.7538 79.3621 84.4472 79.3032C84.0895 79.1381 83.044 78.3598 82.474 77.9392C81.7154 77.3771 81.2123 77.0076 80.8467 76.8071C80.3829 76.3826 78.9364 74.209 77.4073 71.9056C76.4915 70.5298 75.4538 68.9654 74.2589 67.2084C69.7543 60.5813 44.0119 16.0746 43.7493 15.6177C41.5245 11.8286 37.2754 9.64311 32.928 10.0479C32.9083 10.0479 32.8887 10.0519 32.869 10.0558L11.2034 13.106C10.488 13.2082 9.98884 13.8686 10.091 14.584C10.1932 15.2994 10.8535 15.7986 11.569 15.6964L33.1994 12.6502C36.5365 12.3515 39.7872 14.0338 41.4892 16.9346C42.5505 18.7703 67.5381 61.9726 72.1015 68.6782C73.2886 70.4235 74.3223 71.976 75.2342 73.3479C77.9818 77.483 78.8073 78.6936 79.5816 79.0905C79.7742 79.1888 80.4384 79.6802 80.918 80.0378C82.4981 81.2092 83.2567 81.7359 83.8856 81.8578C84.2394 81.9246 84.5499 81.9796 84.829 82.0268C85.3085 82.1093 85.847 82.2037 86.0082 82.2862C86.0161 82.3019 86.0357 82.3373 86.0554 82.3884C86.0829 82.4827 86.075 82.6753 86.0554 82.7225C85.7566 83.1038 85.4461 83.1509 83.9917 83.037C82.785 82.9426 81.1342 82.8129 79.1531 83.4182C74.7153 84.7783 72.8954 80.8279 72.7028 80.3798C72.6871 80.3445 72.6713 80.3052 72.6517 80.2698C69.4993 74.2637 66.2014 73.5326 59.4325 73.3007C58.839 73.281 58.2691 73.1356 57.7856 72.888C54.7511 71.3157 55.3643 68.6468 56.6457 64.7554C56.9955 63.6902 57.3297 62.6839 57.4515 61.7956C57.6559 60.3452 57.3965 58.8987 56.6772 57.4876C55.9264 56.0137 54.7354 54.7833 53.2378 53.9344C52.601 53.5727 51.9643 53.215 51.3314 52.8574C45.9071 49.7953 40.7819 46.9063 36.3554 42.5272C31.9334 38.1523 29.2644 30.4209 29.2369 30.3424C29.1111 29.969 28.8242 29.6742 28.4547 29.5366C28.0852 29.3991 27.6764 29.4344 27.3384 29.6349C22.7041 32.3549 17.3466 34.5365 10.9596 36.3092C10.2638 36.5018 9.85501 37.225 10.0477 37.9208C10.2403 38.6165 10.9596 39.0254 11.6593 38.8327C13.3888 38.3532 15.0436 37.8422 16.6355 37.2998C16.4783 37.9444 16.3643 38.6048 16.3053 39.2809C15.9516 43.1958 17.2212 47.1895 18.5537 50.9394C20.7353 57.0909 24.1903 62.0082 27.8498 67.2125C28.3057 67.8611 28.7656 68.5175 29.2216 69.1739C29.9134 70.1723 30.2986 71.3043 30.334 72.4481C30.3615 73.4819 30.1218 74.3938 29.6186 75.1564C29.2531 75.7067 28.6045 76.3906 27.9127 77.1099C26.6353 78.4463 25.1927 79.9596 24.3987 81.7599C23.4003 84.0358 23.6912 86.2448 25.2634 88.332C25.8255 89.0749 26.5802 89.7077 27.445 90.1636C32.94 93.0449 34.7482 94.4441 34.984 99.9156C34.8819 102.42 36.1515 107.27 41.7291 108.123C43.2856 108.359 44.3783 108.995 45.3413 109.554C46.2218 110.065 47.1809 110.623 48.2776 110.623C48.7571 110.623 49.2681 110.517 49.8027 110.249C50.7853 109.766 51.312 108.673 51.3906 107.86C51.5478 106.173 50.5809 105.481 49.3546 104.609C49.1502 104.463 48.9222 104.302 48.6706 104.114C48.4191 103.811 47.8059 102.651 47.4718 102.022C47.0276 101.185 46.7328 100.631 46.4891 100.293C46.2533 99.7112 45.8799 97.1209 45.4829 94.3773C45.247 92.7342 44.9797 90.875 44.6535 88.7721C44.0914 85.1401 42.7707 71.2844 40.9272 49.6339C43.832 51.6307 46.8901 53.3562 50.0464 55.1369C50.6753 55.4906 51.3081 55.8483 51.9449 56.2099C52.9983 56.8074 53.8277 57.6604 54.3465 58.6784C54.8143 59.5982 54.9872 60.5258 54.8614 61.4299C54.7671 62.0863 54.4723 62.9825 54.1618 63.9337C53.584 65.6908 52.9275 67.6837 52.9826 69.649C53.0533 72.1371 54.2639 74.008 56.583 75.2069C57.4085 75.6353 58.3636 75.8791 59.3424 75.9105C65.5292 76.1228 67.758 76.6023 70.3085 81.4331C71.1222 83.3512 73.4885 86.319 77.3641 86.319C78.1542 86.319 79.0032 86.1971 79.9151 85.9181C81.4206 85.4582 82.6784 85.5564 83.7869 85.6429C85.2412 85.7569 86.8921 85.8866 88.1107 84.334C88.7868 83.4732 88.7946 82.2586 88.5155 81.496C87.9338 79.9002 86.7624 79.6957 85.2766 79.4403L85.2726 79.4525ZM42.0701 89.181C42.3964 91.2721 42.6597 93.1235 42.8956 94.7587C43.6031 99.6759 43.8311 101.126 44.3578 101.814C44.4914 101.991 44.8766 102.718 45.1596 103.253C46.0833 104.994 46.5432 105.8 47.0542 106.181C47.3451 106.394 47.6045 106.582 47.8364 106.747C48.2334 107.03 48.6854 107.353 48.7916 107.494C48.7916 107.514 48.7955 107.553 48.7876 107.612C48.7719 107.706 48.6854 107.879 48.6461 107.911C48.2137 108.123 47.9189 108.033 46.6532 107.298C45.6037 106.688 44.169 105.855 42.1212 105.544C37.5301 104.845 37.5773 100.486 37.597 99.9944C37.6009 99.9551 37.6009 99.9158 37.597 99.8725C37.3218 93.0882 34.6607 91.001 28.6547 87.8528C28.128 87.5777 27.6759 87.2003 27.3457 86.7641C25.2782 84.0243 26.9723 81.8821 29.7946 78.9262C30.5689 78.1165 31.2961 77.354 31.7914 76.6071C32.5972 75.3887 32.9824 73.9696 32.9391 72.3817C32.8919 70.7269 32.3456 69.1035 31.359 67.6884C30.8991 67.028 30.4392 66.3716 29.9793 65.7192C26.426 60.6643 23.0731 55.8886 21.0095 50.0749C19.7752 46.5963 18.5961 42.9171 18.9026 39.5254C19.0126 38.3069 19.3035 37.1984 19.7909 36.1567C22.4834 35.1072 24.9793 33.9477 27.3103 32.6662C28.3559 35.2763 30.8361 40.7595 34.5113 44.3951C35.6787 45.5507 36.8854 46.6042 38.1235 47.5829C39.515 63.997 41.3074 84.3072 42.066 89.1815L42.0701 89.181Z" fill="#112824"></path>
    <path d="M109.194 49.4842L103.825 33.0269C105.664 32.0128 107.142 30.4129 108.015 28.4831C108.05 28.4202 108.078 28.3533 108.105 28.2865C108.604 27.1112 108.884 25.8181 108.884 24.458V24.289C108.884 22.8819 108.585 21.5414 108.046 20.3347C108.023 20.264 107.991 20.1972 107.956 20.1343C106.399 16.8207 103.05 14.5252 99.1708 14.5252H85.9718C81.6166 14.5252 77.3322 15.2681 73.2286 16.7382L73.1696 16.7617C73.1499 16.7696 73.1303 16.7814 73.1106 16.7893H71.499C69.7655 16.7893 68.3584 18.2043 68.3584 19.9456V28.6874C68.3584 30.4287 69.7695 31.8437 71.499 31.8437H72.8708C72.9613 31.9066 73.0595 31.9616 73.1696 32.001L73.2325 32.0245C77.2103 33.4475 81.365 34.1903 85.5822 34.2336L92.2919 44.8938L95.9121 50.6837C97.2013 52.8416 97.1464 55.597 95.7706 57.7039C95.7628 57.7157 95.7549 57.7275 95.747 57.7393L95.7156 57.7904C94.4067 59.8068 94.9531 62.5466 96.942 63.9026L99.5205 65.6635C100.275 66.1785 101.16 66.4418 102.044 66.4418C102.728 66.4418 103.42 66.2846 104.053 65.9662L104.1 65.9426C105.983 64.9757 107.508 63.427 108.392 61.5796C110.212 57.7905 110.495 53.4982 109.194 49.5005L109.194 49.4842ZM72.3047 29.2172H71.5028C71.212 29.2172 70.9761 28.9774 70.9761 28.6787V19.9369C70.9761 19.6381 71.212 19.3984 71.5028 19.3984H72.3047V29.2172ZM106.266 24.2882V24.4572C106.266 25.1804 106.16 25.8762 105.959 26.5365H103.373C102.178 26.5365 101.203 25.5539 101.203 24.3432V24.2724C101.203 23.0618 102.178 22.0791 103.373 22.0791H105.916C106.14 22.7748 106.266 23.5178 106.266 24.2882ZM74.9189 18.9189C78.492 17.7358 82.2064 17.1383 85.9716 17.1383H99.1707C101.238 17.1383 103.101 18.0345 104.398 19.4614H103.369C100.727 19.4614 98.5811 21.6193 98.5811 24.2725V24.3432C98.5811 26.9964 100.727 29.1543 103.369 29.1543H104.512C103.211 30.6559 101.301 31.611 99.1707 31.611H96.0812L93.8564 26.5012C92.9485 24.4179 90.9006 23.0696 88.6365 23.0696H74.9182L74.9189 18.9189ZM74.9189 29.8267V25.6798H88.6372C89.8596 25.6798 90.9681 26.4109 91.4595 27.5391L93.2282 31.6074H85.9722C82.2027 31.6074 78.4876 31.0098 74.9189 29.8267ZM94.9182 44.1387L94.5134 43.4901L92.3869 40.1136L92.8664 39.7992L95.382 43.8006L94.9222 44.1387L94.9182 44.1387ZM99.3442 62.3609L98.4204 61.732C97.595 61.1699 97.3709 60.03 97.9213 59.1928C97.9291 59.181 97.937 59.1653 97.9448 59.1535L97.9763 59.1024C99.8866 56.1622 99.9574 52.322 98.1532 49.315C98.1492 49.3071 98.1453 49.3032 98.1414 49.2953L96.3097 46.363L96.9779 45.8717C98.051 45.0816 98.338 43.5841 97.6265 42.452L95.0401 38.3366C94.6745 37.7549 94.1007 37.35 93.4285 37.2046C92.7563 37.0592 92.0723 37.185 91.4985 37.5623L90.9914 37.8925L88.6801 34.2173H94.3717L100.763 48.9026C102.127 51.941 102.186 55.4511 100.916 58.5327L99.3441 62.3534L99.3442 62.3609ZM106.038 60.4309C105.397 61.7634 104.285 62.8915 102.917 63.5951L102.878 63.6147C102.477 63.8152 102.025 63.8584 101.6 63.7562L103.334 59.5347C104.871 55.7926 104.804 51.5279 103.153 47.8531L97.2216 34.2254H99.1712C99.9298 34.2254 100.669 34.135 101.38 33.966L106.706 50.2945C107.799 53.6512 107.563 57.2518 106.034 60.4315L106.038 60.4309Z" fill="#112824"></path>
  </symbol>
  <symbol fill="none" xmlns="http://www.w3.org/2000/svg" viewBox="0 0 120 120" id="trimmingMoustache">
    <path d="M25.16 60.1475C33.3775 57.4625 33.8225 47.415 44.6525 45.2925C53.315 43.595 58.52 49.565 59.8125 55.9025C60.895 61.2075 57.6475 75 40.32 75C18.6625 75 11.445 61.2075 10 55.9025C12.165 58.025 18.6625 62.27 25.16 60.1475Z" stroke="#112824" stroke-width="4" stroke-linejoin="round"></path>
    <path d="M94.8396 60.1475C86.6196 57.4625 86.1771 47.415 75.3471 45.2925C66.6846 43.595 61.4796 49.565 60.1871 55.9025C59.1046 61.2075 62.3521 75 79.6796 75C101.337 75 108.555 61.2075 110 55.9025C107.835 58.025 101.337 62.27 94.8396 60.1475Z" stroke="#112824" stroke-width="4" stroke-linejoin="round"></path>
  </symbol>
  <symbol fill="none" xmlns="http://www.w3.org/2000/svg" viewBox="0 0 120 120" id="beardTrimming">
    <path d="M94.8885 19.73C94.1718 19.9938 93.7046 20.6856 93.7224 21.4452C93.7688 23.2531 93.0057 24.9363 91.6328 26.0667C90.103 27.3219 87.992 27.7284 85.6563 27.1971C82.9889 26.6016 81.2808 24.7437 79.4765 22.7824C77.6257 20.7748 75.7144 18.6958 72.6905 17.733C69.0888 16.5848 65.5514 17.0947 62.7236 19.1737C61.6039 19.9974 60.7302 21.0494 60.0028 22.194C59.2753 21.0494 58.4017 19.9938 57.282 19.1737C54.4542 17.0983 50.906 16.5812 47.3151 17.733C44.2912 18.6958 42.3799 20.7748 40.5291 22.7824C38.7248 24.7473 37.0167 26.6016 34.3493 27.1971C32.0243 27.7213 29.9026 27.3219 28.3728 26.0667C26.9999 24.9398 26.2368 23.2531 26.2796 21.4452C26.301 20.6856 25.8303 19.9903 25.1135 19.73C24.4003 19.4554 23.5944 19.68 23.113 20.2756C22.9026 20.5323 18.0422 26.6764 22.4925 34.2184C25.7625 39.7599 32.8944 42.98 41.1995 42.98C43.1358 42.98 45.1399 42.8017 47.1689 42.4415C53.4165 41.3254 57.7527 38.6723 60.0028 34.8211C62.2529 38.6759 66.5891 41.3254 72.8367 42.4415C74.8657 42.8052 76.8698 42.98 78.8096 42.98C87.1076 42.98 94.2466 39.7599 97.513 34.2184C101.963 26.6764 97.103 20.5323 96.889 20.2756C96.4112 19.6872 95.6124 19.4625 94.8885 19.73ZM46.5449 38.9326C37.4196 40.5658 28.7936 37.8771 25.5664 32.4105C24.329 30.3101 24.083 28.3703 24.2577 26.7727C24.7641 27.5358 25.3845 28.2276 26.112 28.8231C28.5083 30.7915 31.7212 31.4477 35.1303 30.681C38.8852 29.8394 41.1532 27.3718 43.1537 25.1966C44.7583 23.4564 46.2739 21.8089 48.3956 21.1314C50.8811 20.3362 53.2881 20.6678 55.1745 22.0514C57.0573 23.435 58.2269 25.7457 58.2198 28.085C58.202 35.3274 51.8582 37.9805 46.5449 38.9326ZM94.4392 32.4105C91.2156 37.8771 82.6038 40.5765 73.4607 38.9326C68.1439 37.9805 61.8036 35.3274 61.7858 28.0886C61.7786 25.7493 62.9483 23.435 64.8311 22.055C66.7959 20.6143 69.2778 20.3932 71.6064 21.1349C73.7281 21.8089 75.2472 23.4564 76.8484 25.2001C78.8524 27.3754 81.1168 29.843 84.8753 30.6846C88.2915 31.4548 91.4937 30.7915 93.8936 28.8267C94.6175 28.2312 95.2415 27.5394 95.7479 26.7763C95.9191 28.3703 95.6766 30.3101 94.4392 32.4105Z" fill="#112824"></path>
    <path d="M10 9.78097V61.7298C10 74.2427 16.9358 85.5254 28.1008 91.1703L46.7329 100.592C51.4007 102.952 55.4909 106.44 58.5576 110.672C58.8892 111.136 59.4277 111.411 59.9982 111.411C60.5688 111.411 61.1072 111.136 61.4424 110.672C64.5091 106.436 68.5993 102.952 73.2671 100.592L91.8992 91.1703C103.064 85.5254 110 74.2427 110 61.7298V9.83446C110 8.91088 109.298 8.14064 108.381 8.05862C107.415 7.98373 106.63 8.60421 106.466 9.50996L98.671 51.6346C97.6761 57.0049 92.9904 60.9025 87.5274 60.9025L80.1637 60.8989C75.0929 60.8953 70.7424 57.5433 69.3303 52.8398H72.964C73.9482 52.8398 74.747 52.0411 74.747 51.0569C74.747 50.0727 73.9482 49.2739 72.964 49.2739H47.036C46.0518 49.2739 45.253 50.0727 45.253 51.0569C45.253 52.0411 46.0518 52.8398 47.036 52.8398H50.6733C49.254 57.5398 44.9035 60.8882 39.8328 60.8882L32.4655 60.8811C27.006 60.8811 22.3239 56.9835 21.329 51.6132L13.5374 9.45647C13.3663 8.54715 12.5318 7.93738 11.6225 8.00513C10.7025 8.08715 10 8.85739 10 9.78097ZM13.566 29.2332L17.8237 52.2622C19.1288 59.3228 25.2872 64.447 32.4655 64.447L39.8292 64.4506C46.8612 64.4506 52.8485 59.5581 54.3604 52.8363H65.6324C67.1408 59.5617 73.1281 64.4577 80.1601 64.4613L87.5238 64.4648C94.7092 64.4648 100.868 59.337 102.169 52.28L106.427 29.2725V61.7333C106.427 72.8948 100.244 82.9543 90.2839 87.9894L71.6517 97.4107C67.18 99.6751 63.1862 102.867 59.9911 106.721C56.796 102.867 52.8021 99.6715 48.3304 97.4107L29.6983 87.9894C19.7422 82.9543 13.5553 72.8948 13.5553 61.7333V29.2332H13.566Z" fill="#112824"></path>
  </symbol>
  <symbol fill="none" xmlns="http://www.w3.org/2000/svg" viewBox="0 0 120 120" id="colouringHair">
    <path d="M108.282 68.2646C108.969 87.5086 96.598 104.347 96.598 104.347C96.598 104.347 99.3471 85.1032 75.9794 81.6667C52.6117 78.2303 48.8317 52.8007 48.8317 52.8007C25.1203 58.9862 28.5567 85.1032 28.5567 85.1032C28.5567 85.1032 10 82.3539 10 59.6735C10 36.9931 30.9622 35.275 30.9622 35.275C30.9622 35.275 40.9278 15 61.2027 15C71.512 15 78.3849 20.1546 82.5086 25.3093" stroke="#112824" stroke-width="4" stroke-miterlimit="10" stroke-linecap="round" stroke-linejoin="round"></path>
    <path d="M110 49.7078C110 52.1133 109.313 54.1752 108.282 55.8934C107.938 56.9243 107.251 57.6115 106.564 58.2988C104.158 61.3916 100.378 63.1098 96.2545 63.1098C88.6944 63.1098 82.5088 56.9242 82.5088 49.3641C82.5088 45.9277 85.258 39.7422 88.3508 33.5566C92.1308 25.9965 96.2545 19.1236 96.2545 19.1236C96.2545 19.1236 101.409 27.371 105.189 35.6184C107.938 41.4603 110 46.615 110 49.7078Z" stroke="#112824" stroke-width="4" stroke-miterlimit="10" stroke-linecap="round" stroke-linejoin="round"></path>
  </symbol>
  <symbol fill="none" xmlns="http://www.w3.org/2000/svg" viewBox="0 0 120 120" id="eyelashExtensions">
    <path d="M88.2442 102.763L81.3741 100.855L83.2825 107.725C76.4122 113.832 68.3969 117.649 59.6183 117.649C51.2214 117.649 43.206 113.832 35.9541 107.725L37.8625 100.855L30.9924 102.763C18.3969 89.0229 10 67.6488 10 51.2366C10 41.3129 13.0535 31.771 18.397 23.7557L30.6107 27.1908L27.1756 14.2137C35.9542 6.58014 47.4046 2 60 2C72.5954 2 84.0458 6.58014 92.8244 14.2137L89.3892 27.1908L101.603 23.7557C106.947 31.771 110 40.9313 110 51.2366C109.237 67.6488 101.221 88.6412 88.2442 102.763Z" stroke="#112824" stroke-width="4" stroke-miterlimit="10" stroke-linecap="round" stroke-linejoin="round"></path>
    <path d="M39.0095 65.7406C45.9658 65.7406 51.6049 62.3229 51.6049 58.107C51.6049 53.8911 45.9658 50.4734 39.0095 50.4734C32.0533 50.4734 26.4141 53.8911 26.4141 58.107C26.4141 62.3229 32.0533 65.7406 39.0095 65.7406Z" stroke="#112824" stroke-width="4" stroke-miterlimit="10" stroke-linecap="round" stroke-linejoin="round"></path>
    <path d="M80.611 65.7406C87.5672 65.7406 93.2064 62.3229 93.2064 58.107C93.2064 53.8911 87.5672 50.4734 80.611 50.4734C73.6547 50.4734 68.0156 53.8911 68.0156 58.107C68.0156 62.3229 73.6547 65.7406 80.611 65.7406Z" stroke="#112824" stroke-width="4" stroke-miterlimit="10" stroke-linecap="round" stroke-linejoin="round"></path>
    <path d="M59.6193 95.8931C65.9432 95.8931 71.0697 93.6717 71.0697 90.9313C71.0697 88.191 65.9432 85.9694 59.6193 85.9694C53.2955 85.9694 48.1689 88.191 48.1689 90.9313C48.1689 93.6717 53.2955 95.8931 59.6193 95.8931Z" stroke="#112824" stroke-width="4" stroke-miterlimit="10" stroke-linecap="round" stroke-linejoin="round"></path>
  </symbol>
  <symbol fill="none" xmlns="http://www.w3.org/2000/svg" viewBox="0 0 120 120" id="facialPeeling">
    <path d="M88.2442 102.763L81.3741 100.855L83.2825 107.725C76.4122 113.832 68.3969 117.649 59.6183 117.649C51.2214 117.649 43.206 113.832 35.9541 107.725L37.8625 100.855L30.9924 102.763C18.3969 89.0229 10 67.6488 10 51.2366C10 41.3129 13.0535 31.771 18.397 23.7557L30.6107 27.1908L27.1756 14.2137C35.9542 6.58014 47.4046 2 60 2C72.5954 2 84.0458 6.58014 92.8244 14.2137L89.3892 27.1908L101.603 23.7557C106.947 31.771 110 40.9313 110 51.2366C109.237 67.6488 101.221 88.6412 88.2442 102.763Z" stroke="#112824" stroke-width="4" stroke-miterlimit="10" stroke-linecap="round" stroke-linejoin="round"></path>
    <path d="M39.0095 65.7406C45.9658 65.7406 51.6049 62.3229 51.6049 58.107C51.6049 53.8911 45.9658 50.4734 39.0095 50.4734C32.0533 50.4734 26.4141 53.8911 26.4141 58.107C26.4141 62.3229 32.0533 65.7406 39.0095 65.7406Z" stroke="#112824" stroke-width="4" stroke-miterlimit="10" stroke-linecap="round" stroke-linejoin="round"></path>
    <path d="M80.611 65.7406C87.5672 65.7406 93.2064 62.3229 93.2064 58.107C93.2064 53.8911 87.5672 50.4734 80.611 50.4734C73.6547 50.4734 68.0156 53.8911 68.0156 58.107C68.0156 62.3229 73.6547 65.7406 80.611 65.7406Z" stroke="#112824" stroke-width="4" stroke-miterlimit="10" stroke-linecap="round" stroke-linejoin="round"></path>
    <path d="M59.6193 95.8931C65.9432 95.8931 71.0697 93.6717 71.0697 90.9313C71.0697 88.191 65.9432 85.9694 59.6193 85.9694C53.2955 85.9694 48.1689 88.191 48.1689 90.9313C48.1689 93.6717 53.2955 95.8931 59.6193 95.8931Z" stroke="#112824" stroke-width="4" stroke-miterlimit="10" stroke-linecap="round" stroke-linejoin="round"></path>
  </symbol>
  <symbol fill="none" xmlns="http://www.w3.org/2000/svg" viewBox="0 0 120 120" id="haircutsMen">
    <g clip-path="url(#clip0_5102_698)">
      <path fill-rule="evenodd" clip-rule="evenodd" d="M36.5483 54.6945C36.3253 54.7995 36.1113 54.9186 35.9068 55.0506C34.6746 55.8461 33.7681 57.1396 33.2818 58.7139C32.0298 62.7677 33.6288 68.7527 38.9632 71.3254C39.0526 75.8589 40.579 80.0435 43.1061 83.4415V91.2588H39.6115C38.8796 91.2588 38.2679 91.8154 38.1992 92.544L37.7211 97.6018C32.6633 100.743 27.4253 102.43 22.9406 104.593C19.1808 106.407 15.9308 108.551 13.6185 111.943C11.3213 115.312 9.92824 119.937 10.0029 126.803C10.0088 127.357 10.3376 127.858 10.8444 128.084C43.6148 142.675 76.3852 142.675 109.156 128.084C109.662 127.858 109.991 127.357 109.997 126.803C110.072 119.937 108.679 115.312 106.381 111.943C104.069 108.551 100.819 106.407 97.0594 104.593C92.5747 102.43 87.3367 100.743 82.2789 97.6018L81.8008 92.544C81.7321 91.8154 81.1204 91.2588 80.3885 91.2588H76.8939V83.4415C79.4213 80.0435 80.9477 75.8592 81.0368 71.3254C86.3712 68.7527 87.9702 62.7677 86.7182 58.7139C86.2319 57.1396 85.3254 55.8461 84.0932 55.0506C83.6325 54.7532 83.1246 54.5209 82.5705 54.3702C88.0749 49.5867 87.0064 39.775 79.8968 37.2921C79.0022 31.916 77.0979 28.5423 74.7048 26.4071C70.9274 23.0362 65.8136 22.7159 60.9397 22.8283C58.3746 22.8876 55.8915 23.0552 53.7826 22.8076C52.0653 22.6058 50.6118 22.1561 49.7416 20.8786C48.9339 19.6929 48.6397 17.9015 48.8576 15.2499C48.901 14.7236 48.6485 14.2169 48.2022 13.9349C47.7562 13.6526 47.1902 13.6415 46.7331 13.9059C41.0761 17.1806 37.3486 21.0809 35.6458 25.584C34.0192 29.886 34.2073 34.7713 36.456 40.2794C32.4253 44.2682 32.7127 50.8308 36.5483 54.6945ZM43.1061 94.0959H40.9022L40.4803 98.5614C40.4394 98.9943 40.2025 99.3841 39.8374 99.6199C34.4947 103.068 28.9248 104.857 24.1734 107.149C20.8777 108.739 17.9895 110.568 15.9626 113.541C14.0237 116.385 12.8917 120.254 12.8392 125.863C44.2798 139.617 75.7202 139.617 107.161 125.863C107.108 120.254 105.976 116.385 104.037 113.541C102.011 110.568 99.1223 108.739 95.8266 107.149C91.0752 104.857 85.5053 103.068 80.1626 99.6199C79.7975 99.3841 79.5606 98.9943 79.5197 98.5614L79.0978 94.0959H76.8939V95.0566C76.8939 95.5015 76.6851 95.9208 76.3299 96.1886C65.4457 104.405 54.5617 104.299 43.6775 96.1943C43.318 95.9268 43.1061 95.5049 43.1061 95.0566V94.0959ZM74.0568 86.5545C70.3296 89.9046 65.4011 91.944 60 91.944C54.5989 91.944 49.6704 89.9046 45.9433 86.5545C45.9435 89.8879 45.9435 94.336 45.9435 94.336C55.3144 101.046 64.6856 101.14 74.0568 94.3416V86.5545ZM51.1268 56.4955C48.7827 58.595 45.348 58.8365 41.7962 57.6809V70.3662C41.7964 70.3829 41.7964 70.3993 41.7962 70.4164V70.9032C41.7962 80.9499 49.953 89.1068 60 89.1068C70.047 89.1068 78.2038 80.9499 78.2038 70.9032V70.4164C78.2036 70.3996 78.2036 70.3829 78.2038 70.3662V58.4988C69.1048 60.2068 58.9837 60.6318 51.1268 56.4955ZM81.041 57.0142V68.0289C83.9596 65.9002 84.8195 62.1812 84.0073 59.5512C83.7304 58.6543 83.2566 57.8874 82.5544 57.4343C82.1271 57.1586 81.6198 57.0136 81.041 57.0142ZM38.959 57.0142C38.3802 57.0136 37.8729 57.1586 37.4456 57.4343C36.7435 57.8874 36.2696 58.6543 35.9927 59.5512C35.1805 62.1812 36.0404 65.9002 38.959 68.0289V57.0142ZM79.0363 53.3148C84.9886 50.5048 84.6627 41.3144 78.2975 39.7755C77.7315 39.6385 77.3064 39.1695 77.2259 38.5927C76.5926 34.0572 75.2529 31.0558 73.4116 29.1035C71.3305 26.8973 68.6344 26.0882 65.821 25.794C62.724 25.4702 59.4791 25.7633 56.5968 25.773C52.7428 25.786 49.5008 25.1947 47.6455 22.8172C46.7345 21.6494 46.1183 20.0166 45.9838 17.7182C42.1815 20.2916 39.5721 23.2226 38.2996 26.5875C36.8155 30.5125 37.1878 34.9921 39.4569 40.0831C39.7205 40.6743 39.5505 41.3689 39.0435 41.7715C34.7532 45.1781 35.8114 52.1084 40.9098 54.2791C40.9388 54.2908 40.9671 54.3035 40.9949 54.3169C43.7323 55.595 46.5459 56.0856 48.537 54.9008C46.1441 53.1899 44.0341 50.9474 42.3244 48.0581C41.9258 47.3842 42.1494 46.5135 42.8232 46.1146C43.497 45.716 44.3678 45.9396 44.7664 46.6134C48.2893 52.5677 53.7347 55.3845 59.798 56.422C65.7189 57.4352 72.2202 56.7773 78.2038 55.6112V54.6292C78.2033 54.5918 78.2041 54.5546 78.2064 54.5175L78.2072 54.5078L78.2075 54.5047C78.2245 54.2655 78.3009 54.0431 78.4217 53.8513L78.4274 53.8425L78.4283 53.8411C78.5505 53.6501 78.7196 53.4864 78.9287 53.3695L78.9313 53.3678L78.9401 53.3633C78.9713 53.346 79.0036 53.3298 79.0363 53.3148ZM79.1642 10.9669L62.215 19.2401C61.5114 19.5837 61.2188 20.4337 61.5624 21.1373C61.9057 21.8409 62.7557 22.1332 63.4594 21.7899L82.3983 12.5455L90.0019 16.2571C89.9605 16.513 89.9389 16.7755 89.9389 17.043C89.9389 19.7423 92.1304 21.9337 94.8296 21.9337C97.5289 21.9337 99.7204 19.7423 99.7204 17.043C99.7204 14.3437 97.5289 12.1523 94.8296 12.1523C93.4179 12.1523 92.1448 12.7521 91.252 13.7099L85.6321 10.9669L91.252 8.22366C92.1448 9.18177 93.4179 9.78155 94.8296 9.78155C97.5289 9.78155 99.7204 7.59012 99.7204 4.89084C99.7204 2.19156 97.5289 0.000126329 94.8296 0.000126329C92.1304 0.000126329 89.9389 2.19156 89.9389 4.89084C89.9389 5.15838 89.9605 5.42082 90.0019 5.67673L82.3983 9.38832L63.4594 0.143971C62.7557 -0.19961 61.9057 0.0929018 61.5624 0.79652C61.2188 1.50014 61.5114 2.35015 62.215 2.69345L79.1642 10.9669ZM92.7761 17.043C92.7761 15.9095 93.6965 14.9895 94.8296 14.9895C95.9631 14.9895 96.8832 15.9095 96.8832 17.043C96.8832 18.1764 95.9631 19.0965 94.8296 19.0965C93.6965 19.0965 92.7761 18.1764 92.7761 17.043ZM92.7761 4.89084C92.7761 3.75739 93.6965 2.83729 94.8296 2.83729C95.9631 2.83729 96.8832 3.75739 96.8832 4.89084C96.8832 6.024 95.9631 6.94438 94.8296 6.94438C93.6965 6.94438 92.7761 6.024 92.7761 4.89084Z" fill="#112824"></path>
    </g>
    <defs>
      <clipPath id="clip0_5102_698">
        <rect width="120" height="120" fill="white"></rect>
      </clipPath>
    </defs>
  </symbol>
  <symbol fill="none" xmlns="http://www.w3.org/2000/svg" viewBox="0 0 120 120" id="haircutsWomen">
    <g clip-path="url(#clip0_5102_667)">
      <path fill-rule="evenodd" clip-rule="evenodd" d="M15.0525 115.163C13.0537 118.355 11.8589 122.671 11.9268 128.915C11.9325 129.45 12.2487 129.93 12.7359 130.148C44.2453 144.178 75.7547 144.178 107.264 130.148C107.751 129.93 108.067 129.45 108.073 128.915C108.141 122.671 106.946 118.355 104.947 115.163C108.018 112.825 110 109.132 110 104.977C110 99.9545 107.1 95.6034 102.884 93.5083C103.105 92.6108 103.222 91.6724 103.222 90.7067C103.222 86.4756 100.974 82.7655 97.6081 80.7086C98.2192 79.5164 98.5642 78.1661 98.5642 76.7339C98.5642 72.3773 95.3665 68.76 91.1913 68.1025V57.7852C91.1913 40.5716 77.215 26.5961 60 26.5961C42.785 26.5961 28.8087 40.5716 28.8087 57.7852V68.1025C24.6335 68.76 21.4357 72.3773 21.4357 76.7339C21.4357 78.1661 21.7808 79.5164 22.3919 80.7086C19.0264 82.7655 16.7782 86.4756 16.7782 90.7067C16.7782 91.6724 16.8953 92.6108 17.116 93.5083C12.8999 95.6034 10 99.9545 10 104.977C10 109.132 11.9824 112.825 15.0525 115.163ZM43.7562 97.4666H41.6371L41.2314 101.76C41.1921 102.178 40.9643 102.552 40.6133 102.778C35.4762 106.095 30.1206 107.814 25.552 110.018C22.605 111.439 19.997 113.06 18.0784 115.58C18.0555 115.613 18.0309 115.646 18.0056 115.676C17.8866 115.837 17.7704 115.998 17.6572 116.164C15.7929 118.9 14.7044 122.619 14.654 128.012C44.8847 141.237 75.1153 141.237 105.346 128.012C105.296 122.619 104.207 118.9 102.343 116.164C102.23 115.998 102.113 115.837 101.994 115.676C101.969 115.646 101.945 115.613 101.922 115.58C100.003 113.06 97.395 111.439 94.448 110.018C89.8794 107.814 84.5238 106.095 79.3867 102.778C79.0357 102.552 78.8079 102.178 78.7686 101.76L78.3629 97.4666H76.2438V98.3914C76.2438 98.8197 76.043 99.2235 75.7015 99.4799C65.2361 107.38 54.771 107.279 44.3056 99.4853C43.9599 99.2289 43.7562 98.8224 43.7562 98.3914V97.4666ZM103.313 112.981C105.719 111.139 107.272 108.239 107.272 104.977C107.272 100.667 104.557 96.9838 100.746 95.5489C100.044 95.2843 99.6876 94.504 99.946 93.8002C100.301 92.8372 100.494 91.7952 100.494 90.7067C100.494 87.0321 98.2822 83.8703 95.1193 82.479C94.7352 82.3126 94.4502 81.9744 94.3465 81.5679C94.2428 81.1614 94.332 80.7304 94.5882 80.3976C95.3709 79.3828 95.8363 78.1115 95.8363 76.7339C95.8363 73.4166 93.1437 70.7242 89.8273 70.7242C89.0741 70.7242 88.4633 70.1158 88.4633 69.3602V57.7852C88.4633 42.0775 75.7094 29.3241 60 29.3241C44.2906 29.3241 31.5367 42.0775 31.5367 57.7852V69.3602C31.5367 70.1158 30.9259 70.7242 30.1727 70.7242C26.8563 70.7242 24.1637 73.4166 24.1637 76.7339C24.1637 78.1115 24.6291 79.3828 25.4118 80.3976C25.668 80.7304 25.7572 81.1614 25.6535 81.5679C25.5498 81.9744 25.2648 82.3126 24.8807 82.479C21.7178 83.8703 19.5062 87.0321 19.5062 90.7067C19.5062 91.7952 19.6994 92.8372 20.054 93.8002C20.3124 94.504 19.9555 95.2843 19.2544 95.5489C15.4426 96.9838 12.728 100.667 12.728 104.977C12.728 108.239 14.2813 111.139 16.6871 112.981C18.7656 110.635 21.4014 108.992 24.3667 107.56C28.6788 105.481 33.7153 103.858 38.5784 100.838L39.0381 95.9744C39.1041 95.276 39.6923 94.7386 40.3961 94.7386H43.7562V87.223C41.3263 83.9549 39.8587 79.9338 39.7728 75.5745C34.6436 73.1002 33.1061 67.3441 34.31 63.4486C34.7775 61.9345 35.6491 60.6906 36.8339 59.924C38.0424 59.1438 39.5903 58.8301 41.4486 59.3047C41.5307 59.3266 41.6101 59.3539 41.6859 59.3866L41.6938 59.3893L41.7045 59.3948C41.7096 59.3975 41.7148 59.4003 41.7197 59.403L41.7304 59.4084C44.3034 60.606 46.946 60.9661 48.8523 59.8722C46.5925 58.1181 44.604 55.9056 43.0046 53.2022C42.6213 52.5529 42.8363 51.7155 43.4842 51.3336C44.1321 50.9489 44.9693 51.1644 45.3526 51.8137C47.0483 54.6781 49.2329 56.9205 51.7312 58.59C51.7885 58.6227 51.8441 58.6582 51.8976 58.6991C59.4719 63.6586 69.8603 63.4185 78.2593 59.4111C78.274 59.4057 78.2887 59.3975 78.3037 59.3921L78.3111 59.3866H78.3141C78.3899 59.3539 78.4693 59.3266 78.5514 59.3047C80.4097 58.8301 81.9576 59.1438 83.1661 59.924C84.3509 60.6906 85.2225 61.9345 85.69 63.4486C86.8939 67.3441 85.3564 73.1002 80.2272 75.5745C80.1416 79.9338 78.6739 83.9549 76.2438 87.223V94.7386H79.6039C80.3077 94.7386 80.8959 95.276 80.9619 95.9744L81.4215 100.838C86.2847 103.858 91.3212 105.481 95.6333 107.56C98.5986 108.992 101.234 110.635 103.313 112.981ZM73.5158 90.2156C69.9321 93.4374 65.1933 95.3988 60 95.3988C54.8067 95.3988 50.0679 93.4374 46.4842 90.2156C46.4844 93.421 46.4844 97.6985 46.4844 97.6985C55.4947 104.15 64.5053 104.24 73.5158 97.704V90.2156ZM51.2527 61.5063C49.0081 63.3804 45.8046 63.6695 42.4967 62.6301V74.6497C42.4969 74.6661 42.4969 74.6824 42.4967 74.6988V75.168C42.4967 84.8278 50.3396 92.6708 60 92.6708C69.6604 92.6708 77.5033 84.8278 77.5033 75.168V74.6988C77.5031 74.6824 77.5031 74.6661 77.5033 74.6497V62.7202C68.9481 66.1575 58.9464 66.0784 51.2527 61.5063ZM80.2313 61.8118V72.4046C83.0376 70.3558 83.8645 66.7821 83.0834 64.2533C82.8172 63.3913 82.3616 62.652 81.6864 62.2155C81.2756 61.9509 80.7878 61.8118 80.2313 61.8118ZM39.7687 61.8118C39.2122 61.8118 38.7244 61.9509 38.3136 62.2155C37.6384 62.652 37.1828 63.3913 36.9165 64.2533C36.1355 66.7821 36.9624 70.3558 39.7687 72.4046V61.8118ZM84.6406 22.2204L68.8878 21.1238C68.1368 21.072 67.4845 21.6366 67.4324 22.3895C67.38 23.1397 67.9472 23.7918 68.6982 23.8436L86.5745 25.0876L90.5082 30.9254C90.3906 31.0782 90.2821 31.2392 90.183 31.411C88.9887 33.4788 89.6986 36.1277 91.7675 37.3226C93.8364 38.5174 96.4858 37.8082 97.6804 35.7377C98.875 33.6698 98.1649 31.0209 96.096 29.826C95.0492 29.2204 93.8536 29.1031 92.7735 29.4059L90.0265 25.3303L94.9295 25.6713C95.2096 26.7571 95.9085 27.7337 96.9556 28.3366C99.0245 29.5314 101.674 28.8221 102.868 26.7516C104.063 24.6838 103.353 22.0349 101.284 20.8401C99.2152 19.6452 96.5657 20.3545 95.3711 22.425C95.2724 22.5942 95.1865 22.7715 95.1133 22.9488L88.0923 22.4605L78.0765 7.60111C77.6558 6.9764 76.8074 6.81269 76.1833 7.2328C75.5588 7.65291 75.3938 8.50137 75.8144 9.12608L84.6406 22.2204ZM92.5458 32.775C92.9874 32.0085 93.967 31.7466 94.732 32.1885C95.4972 32.6305 95.7596 33.6098 95.3179 34.3737C94.8763 35.1402 93.8967 35.4021 93.1315 34.9601C92.3665 34.5182 92.1041 33.5389 92.5458 32.775ZM97.7336 23.789C98.1752 23.0225 99.1549 22.7605 99.9201 23.2025C100.685 23.6444 100.947 24.6238 100.506 25.3876C100.064 26.1542 99.0845 26.4161 98.3195 25.9742C97.5543 25.5322 97.2919 24.5529 97.7336 23.789Z" fill="#112824"></path>
    </g>
    <defs>
      <clipPath id="clip0_5102_667">
        <rect width="120" height="120" fill="white"></rect>
      </clipPath>
    </defs>
  </symbol>
</svg>
