<svg aria-hidden="true" style="position: absolute; width: 0; height: 0; overflow: hidden;" version="1.1" xmlns="http://www.w3.org/2000/svg" xmlns:xlink="http://www.w3.org/1999/xlink">
<defs>
<symbol id="icon-angle-left" viewBox="0 0 32 32">
<path fill="#9cafac" style="fill: var(--color1, #4b635f)" d="M13.389 16l7.521-7.025c0.537-0.503 0.567-1.347 0.064-1.885-0.501-0.539-1.348-0.567-1.884-0.064l-7.601 7.101c-0.531 0.496-0.823 1.16-0.823 1.873s0.292 1.377 0.821 1.873l7.601 7.101c0.257 0.24 0.584 0.359 0.911 0.359 0.357 0 0.712-0.141 0.973-0.423 0.503-0.539 0.473-1.381-0.064-1.885l-7.52-7.025z"></path>
</symbol>
<symbol id="icon-angle-right" viewBox="0 0 32 32">
<path fill="#4b635f" style="fill: var(--color2, #4b635f)" d="M20.512 14.127l-7.601-7.101c-0.537-0.501-1.383-0.475-1.884 0.064-0.503 0.539-0.475 1.383 0.063 1.885l7.521 7.025-7.521 7.025c-0.537 0.503-0.567 1.347-0.064 1.885 0.263 0.281 0.617 0.423 0.975 0.423 0.327 0 0.653-0.119 0.911-0.359l7.601-7.101c0.529-0.496 0.821-1.16 0.821-1.873s-0.292-1.377-0.821-1.873z"></path>
</symbol>
</defs>
</svg>
