<svg aria-hidden="true" style="position: absolute; width: 0; height: 0; overflow: hidden;" version="1.1" xmlns="http://www.w3.org/2000/svg" xmlns:xlink="http://www.w3.org/1999/xlink">
<defs>
<symbol id="icon-arrow-right" viewBox="0 0 39 32">
<path fill="#126a57" style="fill: var(--color1, #126a57)" d="M37.953 17.096c0.2-0.524 0.252-1.1 0.15-1.655s-0.353-1.066-0.722-1.467l-10.55-11.458c-0.243-0.274-0.534-0.492-0.856-0.642s-0.668-0.229-1.018-0.232c-0.35-0.003-0.697 0.069-1.022 0.213s-0.619 0.357-0.866 0.626c-0.248 0.269-0.444 0.589-0.576 0.941s-0.199 0.729-0.196 1.11c0.003 0.38 0.076 0.756 0.214 1.106s0.339 0.666 0.591 0.93l6.051 6.571h-25.283c-0.7 0-1.37 0.302-1.865 0.839s-0.772 1.266-0.772 2.025c0 0.76 0.278 1.488 0.772 2.025s1.166 0.839 1.865 0.839h25.283l-6.048 6.568c-0.252 0.264-0.453 0.58-0.591 0.93s-0.211 0.725-0.214 1.106c-0.003 0.381 0.064 0.758 0.196 1.11s0.328 0.672 0.576 0.941c0.248 0.269 0.542 0.482 0.866 0.626s0.671 0.216 1.022 0.213c0.35-0.003 0.696-0.082 1.018-0.232s0.613-0.369 0.856-0.642l10.55-11.458c0.244-0.267 0.438-0.583 0.57-0.931v0z"></path>
</symbol>
<symbol id="icon-arrow-left" viewBox="0 0 39 32">
<path fill="#126a57" style="fill: var(--color1, #126a57)" d="M35.517 13.161h-25.28l6.047-6.584c0.252-0.265 0.453-0.582 0.591-0.932s0.211-0.727 0.214-1.108c0.003-0.381-0.064-0.759-0.196-1.112s-0.328-0.673-0.576-0.943c-0.248-0.27-0.542-0.483-0.866-0.627s-0.671-0.217-1.022-0.214c-0.35 0.003-0.696 0.083-1.018 0.233s-0.613 0.369-0.856 0.643l-10.549 11.485c-0.246 0.267-0.44 0.584-0.573 0.932s-0.201 0.723-0.201 1.1c0 0.378 0.068 0.752 0.201 1.1s0.328 0.666 0.573 0.932l10.549 11.485c0.497 0.523 1.164 0.813 1.855 0.806s1.353-0.308 1.842-0.841c0.489-0.532 0.766-1.252 0.772-2.005s-0.26-1.478-0.74-2.019l-6.047-6.59h25.28c0.7 0 1.37-0.303 1.865-0.841s0.772-1.269 0.772-2.030c0-0.761-0.278-1.492-0.772-2.030s-1.165-0.841-1.865-0.841z"></path>
</symbol>
</defs>
</svg>
