<svg aria-hidden="true"
     style="position: absolute; width: 0; height: 0; overflow: hidden;"
     version="1.1" xmlns="http://www.w3.org/2000/svg"
     xmlns:xlink="http://www.w3.org/1999/xlink">
  <defs>
    <symbol id="icon-Logo" viewBox="0 0 200 32">
      <path fill="#eefbf6" style="fill: var(--color1, #eefbf6)"
            d="M148.832 14.257v16.197h-4.598v-27.857h4.598l11.196 16.834c0.912 1.353 1.474 3.542 1.965 5.173l0.772-0.278c-0.491-1.632-1.193-3.741-1.193-5.492v-16.237h4.598v27.857h-4.598l-11.196-16.794c-0.948-1.393-1.509-3.542-2.001-5.213l-0.737 0.318c0.491 1.632 1.193 3.741 1.193 5.492z"></path>
      <path fill="#eefbf6" style="fill: var(--color1, #eefbf6)"
            d="M135.916 18.316c1.404 0.955 2.036 2.666 2.597 5.173 0.316 1.592 1.86 6.964 1.86 6.964h-4.738c-0.772-3.502-1.369-6.089-1.474-6.646-1.123-4.497-3.58-4.019-4.878-4.099-0.246 0-0.527 0-0.842 0-0.842 0-2.632 0-3.053 0v10.745h-4.457v-27.857h8.774c5.51 0 10.073 1.273 10.073 7.8 0 3.582-1.649 5.174-3.861 6.248-1.158 0.597-2.843 0.358-4.106 0.358v0.915c1.264 0 3.054-0.398 4.106 0.398zM125.387 6.059v9.352h3.966c3.053 0 5.826-1.393 5.826-4.935 0-3.502-2.562-4.417-5.826-4.417h-3.966z"></path>
      <path fill="#eefbf6" style="fill: var(--color1, #eefbf6)"
            d="M94.742 30.414l9.055-27.897h5.264l9.476 27.897h-4.808l-3.299-9.71h-7.827l-3.018 9.71h-4.843zM109.869 16.804l-2.878-7.402c-0.316-0.836-0.14-1.99-0.14-2.865h-0.807c0 0.875 0.175 2.030-0.14 2.865l-2.878 7.402h6.844z"></path>
      <path fill="#eefbf6" style="fill: var(--color1, #eefbf6)"
            d="M89.386 30.454v-2.229c0-1.592 0.632-3.582 0.983-5.134l-0.737-0.199c-0.386 1.512-0.456 3.781-1.404 4.974-1.228 1.512-3.51 3.224-7.125 3.224-7.23 0-12.845-6.288-12.845-14.565s5.51-14.526 13.056-14.526c5.44 0 9.827 2.865 11.477 7.88 0 0-4.598 1.194-4.563 1.154-1.088-2.547-3.755-4.099-7.195-4.099-4.843 0-8.178 3.98-8.178 9.591s3.58 9.631 8.774 9.631c5.58 0 7.23-4.099 7.23-6.288h-6.598v-4.497h11.547v15.083h-4.422z"></path>
      <path fill="#eefbf6" style="fill: var(--color1, #eefbf6)"
            d="M59.13 30.454h-4.598v-23.002h-6.563v-4.855h17.724v4.855h-6.563v23.002z"></path>
      <path fill="#eefbf6" style="fill: var(--color1, #eefbf6)"
            d="M44.35 2.597v18.187c0.035 6.646-4.738 10.267-10.845 10.267-6.142 0-10.845-3.621-10.88-10.267 0-8.277 0.035-18.187 0.035-18.187h4.598v16.714c0.035 3.621 2.667 6.845 6.247 6.845 3.615 0 6.282-3.224 6.247-6.845 0-5.691 0-16.714 0-16.714h4.598z"></path>
      <path fill="#eefbf6" style="fill: var(--color1, #eefbf6)"
            d="M12.481 30.454h-4.598v-23.002h-6.563v-4.855h17.724v4.855h-6.563v23.002z"></path>
      <path fill="#f9fbfb" style="fill: var(--color2, #f9fbfb)"
            d="M183.029 2c7.459 0 13.333 6.402 13.333 13.908s-5.874 13.946-13.333 13.946c-7.459 0-13.333-6.059-13.333-13.946s5.874-13.908 13.333-13.908zM185.179 7.098c-0.095 0.222-0.21 0.501-0.352 0.84-0.362 0.893-1.068 2.121-1.575 2.724-1.050 1.273-1.068 1.317-0.416 1.496 0.851 0.201 2.137 1.384 2.68 2.456 0.326 0.643 0.479 0.956 0.626 0.952 0.138-0.003 0.269-0.288 0.533-0.841 0.398-0.804 2.118-2.657 2.752-2.925 0.145-0.067 0.036-0.313-0.308-0.603-1.231-1.206-2.209-2.478-2.807-3.639-0.017-0.034-0.034-0.067-0.050-0.1-0.343-0.144-0.704-0.265-1.083-0.36z"></path>
    </symbol>
  </defs>
</svg>
