<svg aria-hidden="true" style="position: absolute; width: 0; height: 0; overflow: hidden;" version="1.1" xmlns="http://www.w3.org/2000/svg" xmlns:xlink="http://www.w3.org/1999/xlink">
<defs>
<symbol id="icon-user-circle" viewBox="0 0 35 32">
<path d="M17.333 18.667c1.055 0 2.086-0.313 2.963-0.899s1.561-1.419 1.964-2.394c0.404-0.975 0.509-2.047 0.303-3.081s-0.714-1.985-1.46-2.731c-0.746-0.746-1.696-1.254-2.731-1.46s-2.107-0.1-3.081 0.303c-0.975 0.404-1.808 1.087-2.394 1.964s-0.899 1.908-0.899 2.963c0 1.414 0.562 2.771 1.562 3.771s2.357 1.562 3.771 1.562zM17.333 10.667c0.527 0 1.043 0.156 1.482 0.449s0.78 0.71 0.982 1.197c0.202 0.487 0.255 1.023 0.152 1.541s-0.357 0.992-0.73 1.365c-0.373 0.373-0.848 0.627-1.365 0.73s-1.053 0.050-1.541-0.152c-0.487-0.202-0.904-0.544-1.197-0.982s-0.449-0.954-0.449-1.482c0-0.707 0.281-1.386 0.781-1.886s1.178-0.781 1.886-0.781z"></path>
<path d="M30.667 16c0.002-2.306-0.594-4.574-1.731-6.58s-2.774-3.685-4.752-4.87-4.231-1.836-6.536-1.891c-2.306-0.054-4.586 0.49-6.618 1.581s-3.747 2.689-4.976 4.641c-1.229 1.951-1.932 4.188-2.038 6.492s0.386 4.596 1.43 6.652c1.044 2.056 2.604 3.807 4.526 5.080 0.011 0.008 0.017 0.017 0.028 0.025 0.051 0.033 0.107 0.056 0.159 0.089 0.43 0.274 0.875 0.524 1.333 0.748 0.121 0.059 0.241 0.12 0.365 0.175 0.519 0.239 1.054 0.444 1.6 0.612 0.065 0.021 0.133 0.033 0.201 0.052 0.491 0.14 0.99 0.251 1.495 0.332 0.147 0.025 0.292 0.049 0.439 0.068 0.578 0.080 1.16 0.123 1.743 0.127 0.58-0.005 1.159-0.047 1.733-0.127 0.147-0.019 0.292-0.043 0.439-0.068 0.504-0.081 1.003-0.192 1.495-0.332 0.067-0.019 0.133-0.031 0.201-0.052 0.546-0.168 1.081-0.373 1.6-0.612 0.124-0.055 0.244-0.116 0.365-0.175 0.458-0.224 0.903-0.474 1.333-0.748 0.052-0.033 0.108-0.056 0.159-0.089 0.011-0.008 0.017-0.017 0.028-0.025 1.836-1.214 3.343-2.863 4.386-4.801s1.591-4.104 1.594-6.304zM6.667 16c-0.003-1.77 0.434-3.513 1.272-5.072s2.051-2.885 3.529-3.858c1.478-0.973 3.175-1.564 4.938-1.717s3.537 0.133 5.161 0.836c1.624 0.702 3.049 1.798 4.144 3.188s1.828 3.031 2.131 4.775c0.303 1.744 0.168 3.535-0.394 5.214s-1.532 3.19-2.824 4.4c-0.539-1.124-1.384-2.073-2.437-2.739s-2.274-1.022-3.52-1.026h-2.667c-1.246 0.005-2.466 0.36-3.52 1.026s-1.898 1.615-2.437 2.739c-1.065-0.994-1.914-2.196-2.494-3.532s-0.881-2.777-0.882-4.233zM21.127 25.957c-2.447 0.909-5.14 0.909-7.587 0-0.047-0.019-0.096-0.033-0.143-0.052-0.396-0.154-0.782-0.332-1.156-0.533 0.266-0.786 0.772-1.47 1.446-1.955s1.482-0.747 2.313-0.75h2.667c0.83 0.003 1.638 0.265 2.312 0.749s1.18 1.167 1.446 1.953c-0.374 0.201-0.76 0.379-1.156 0.533-0.047 0.021-0.096 0.036-0.143 0.055z"></path>
</symbol>
</defs>
</svg>
